<svg version="1.1" xmlns="http://www.w3.org/2000/svg" viewBox="0 0 1086.7187328731272 639.5602898911754" width="1086.7187328731272" height="639.5602898911754">
  <!-- svg-source:excalidraw -->
  
  <defs>
    <style>
      @font-face {
        font-family: "Virgil";
        src: url("https://excalidraw.com/Virgil.woff2");
      }
      @font-face {
        font-family: "Cascadia";
        src: url("https://excalidraw.com/Cascadia.woff2");
      }
    </style>
  </defs>
  <rect x="0" y="0" width="1086.7187328731272" height="639.5602898911754" fill="#ffffff"></rect><g stroke-linecap="round"><g transform="translate(495.2961403643717 372.1424758721964) rotate(269.83845249062614 39.63611007144027 170.45503184826924)" fill-rule="evenodd"><path d="M-1.99 -1.63 L76.3 0.31 L77.67 304.83 L38.02 341.73 L0.5 303.41 L0.71 -0.88" stroke="none" stroke-width="0" fill="#eeeeee" fill-rule="evenodd"></path><path d="M0.25 0.76 C20.35 -2.1, 44.87 -0.82, 78.19 -1.77 M0.16 -0.43 C19.09 0.9, 39.7 -0.13, 78.9 -1.18 M78.14 -0.49 C79.55 96.58, 80.73 193.15, 77.1 306.58 M78.42 -0.42 C77.53 107.93, 78.43 215.68, 76.95 306.23 M76.18 304.91 C67.31 316.43, 56.51 323.91, 39.29 341.67 M77.3 306.75 C68.98 314.49, 59.9 321.69, 36.91 340.34 M36.99 342.68 C26.61 330.4, 17.11 321.11, 1.33 306.31 M38.25 340.96 C26.84 330.36, 17.48 320.21, 1.83 305.24 M0.37 305.78 C2.89 216.48, 2.52 128.34, 0.46 -1.39 M0.53 304.2 C2.57 227.32, 2.58 150.32, -0.24 0.58 M0 0 C0 0, 0 0, 0 0 M0 0 C0 0, 0 0, 0 0" stroke="#000000" stroke-width="1" fill="none"></path></g></g><g stroke-linecap="round" transform="translate(377.13975982447687 529.8147246737819) rotate(0 31.830230515057565 21.156620282463507)"><path d="M-1.61 -0.8 L62.48 1.33 L63.99 41.48 L0.3 40.91" stroke="none" stroke-width="0" fill="#868e96"></path><path d="M0.76 -1.81 C20.06 0.48, 43.42 -0.14, 62.19 -1.01 M-0.43 -0.45 C23.3 0.52, 44.76 0.55, 62.78 0.17 M63.4 -0.29 C63.16 17.62, 62.33 31.29, 63.5 43.33 M63.5 -0.58 C64.57 13.56, 64.66 24.26, 63.01 41.8 M61.88 42.07 C47.89 40.77, 29.5 43.53, 0.92 40.93 M63.72 43.06 C46.96 43.03, 29.39 41.42, -0.41 42.14 M1.93 41.32 C-0.24 32.42, 0.63 23.01, 1.5 -0.35 M0.21 41.99 C0.19 28.1, 0.19 13.26, 0.43 -0.12" stroke="#000000" stroke-width="1" fill="none"></path></g><g stroke-linecap="round"><g transform="translate(409.843457453306 549.4383866288936) rotate(0 -0.9628367067883232 -9.895117229647639)" fill-rule="evenodd"><path d="M-0.8 -1.18 L31.53 -19.66 L-32.61 -19.45 L-1.4 0.63" stroke="none" stroke-width="0" fill="#ced4da" fill-rule="evenodd"></path><path d="M-1.81 -1.94 C9.89 -6.88, 18.62 -13.96, 29.19 -18.95 M-0.45 0.89 C9.35 -5.72, 18.14 -12.34, 30.36 -19.21 M29.91 -20.38 C14.87 -21.22, -4.41 -20.09, -30.76 -19.81 M29.61 -19.23 C10.35 -19.16, -12.36 -20.58, -32.29 -20.01 M-32.02 -18.12 C-26.4 -14.72, -17.03 -10.33, -1.38 -0.69 M-31.03 -19.54 C-23.59 -15.66, -17.86 -11.05, -0.17 -0.71 M0 0 C0 0, 0 0, 0 0 M0 0 C0 0, 0 0, 0 0" stroke="#000000" stroke-width="1" fill="none"></path></g></g><g stroke-linecap="round"><g transform="translate(508.9399142091752 553.7332006236034) rotate(0 39.544432882291574 -0.5603686847153284)"><path d="M-1.94 0.56 C24.42 0.2, 48.51 -1.21, 81.03 -1.68" stroke="#000000" stroke-width="1.5" fill="none" stroke-dasharray="1.5 7"></path></g></g><g stroke-linecap="round" transform="translate(453.23680735756193 530.1811631049176) rotate(0 31.830230515057565 21.156620282463507)"><path d="M1.33 0.33 L62.83 0.3 L62.26 42.95 L-1.91 41.39" stroke="none" stroke-width="0" fill="#868e96"></path><path d="M0.56 -0.57 C21.46 -0.85, 42.03 1.66, 63.46 0.31 M0.62 -0.05 C16.98 -1.45, 32.83 0.21, 63.4 -0.08 M65.31 -1.22 C62.94 11.98, 64.62 24.21, 64.39 42.8 M64.66 0.84 C62.54 11.36, 62.9 23.74, 62.74 41.62 M62.57 42.95 C51.91 43.75, 35.45 42.14, -1.38 41.76 M64.55 41.85 C43.5 42.03, 24.59 41.74, 0.05 42 M-0.2 42.96 C0.31 27.04, -0.14 9.78, -1.07 1.25 M0.61 42.28 C0.74 29.17, 0.01 14.38, -0.4 -0.59" stroke="#000000" stroke-width="1" fill="none"></path></g><g stroke-linecap="round"><g transform="translate(485.6968960389745 548.0619800428169) rotate(0 -0.7162525241831759 -9.947585378296253)" fill-rule="evenodd"><path d="M0.33 -0.83 L30.49 -21.39 L-31.14 -21.66 L-0.93 -1.64" stroke="none" stroke-width="0" fill="#ced4da" fill-rule="evenodd"></path><path d="M-0.57 -0.06 C5.06 -5.28, 13.9 -8.67, 30.51 -20.86 M-0.05 0.65 C6.65 -5.12, 16.01 -10.65, 30.12 -20.12 M28.98 -20.65 C12.33 -18.39, -5.28 -18.61, -31.29 -20.07 M31.04 -20.86 C14.56 -19.82, -0.03 -20.17, -32.47 -20.64 M-31.14 -18.08 C-21.54 -15.27, -14 -9.58, -0.55 0.11 M-32.23 -20.46 C-20.25 -12.81, -8.64 -5.19, -0.32 0.96 M0 0 C0 0, 0 0, 0 0 M0 0 C0 0, 0 0, 0 0" stroke="#000000" stroke-width="1" fill="none"></path></g></g><g stroke-linecap="round" transform="translate(589.7961960284692 528.7154093803622) rotate(0 31.830230515057565 21.156620282463507)"><path d="M-0.83 0.3 L62.26 0.63 L61.75 41.39 L-1.64 40.82" stroke="none" stroke-width="0" fill="#868e96"></path><path d="M-0.06 -1.47 C11.92 1.22, 25.64 0.49, 62.79 -0.89 M0.65 -0.88 C24.94 0.81, 49.29 -0.04, 63.53 -0.14 M63 -0.16 C65.02 11.8, 64.74 24.21, 63.33 41.15 M62.79 -0.65 C63.57 15.64, 63.16 31.11, 62.77 42.19 M65.33 43.23 C38.01 41.83, 13.73 41.96, 0.11 43.8 M62.95 41.9 C43.06 41.31, 22.87 41.7, 0.96 41.82 M0.1 43.81 C-0.31 31.08, -1.03 19.08, 0.41 -0.64 M0.6 42.74 C-0.38 28.98, -0.66 16.67, 0.67 0.17" stroke="#000000" stroke-width="1" fill="none"></path></g><g stroke-linecap="round"><g transform="translate(622.8021211897906 545.8594802593477) rotate(0 -1.443282384668521 -10.354402603981995)" fill-rule="evenodd"><path d="M0.3 -1.4 L30.83 -21.9 L-32.7 -21.39 L-1.49 -1.92" stroke="none" stroke-width="0" fill="#ced4da" fill-rule="evenodd"></path><path d="M-1.47 -1.01 C11 -6.75, 20.18 -13.97, 29.3 -18.2 M-0.88 0.17 C11.72 -7.7, 21.8 -14.8, 30.05 -20.19 M30.04 -18.97 C6.44 -19.37, -16.71 -20.33, -32.94 -18.23 M29.55 -20.5 C5.17 -21.35, -20.01 -21.22, -31.89 -18.93 M-30.85 -21.12 C-24.61 -16.54, -16.68 -10.21, 1.49 0.42 M-32.19 -19.92 C-20.2 -11.78, -7.44 -3.18, -0.49 -0.11 M0 0 C0 0, 0 0, 0 0 M0 0 C0 0, 0 0, 0 0" stroke="#000000" stroke-width="1" fill="none"></path></g></g><g transform="translate(481.6155977999267 598.5602898911754) rotate(0 53 15.5)"><text x="53" y="22" font-family="Virgil, Segoe UI Emoji" font-size="25.22089074670173px" fill="#000000" text-anchor="middle" style="white-space: pre;" direction="ltr">Queue 2</text></g><g stroke-linecap="round"><g transform="translate(289.4790502175231 550.4351276693792) rotate(0 32.01368574298027 -5.988837620340178)" fill-rule="evenodd"><path d="M-1.7 -1.44 L1.52 23.78 L2.78 27.39 L56.38 26.07 L62.77 25.62 L64.58 25.25 L64.03 6.82 L62.32 -9.19 L58.1 -9.88 L38.31 -11.88 L35.81 -36.79 L36.48 -39.57 L27.96 -37.71 L23.54 -37.63 L22.66 -11.41 L23.47 -9.82 L13.49 -11.26 L14.41 -12.22 L11.21 -35.29 L5.6 -37.91 L3.44 -38.93 L1.99 -34.3 L0.67 0.14" stroke="none" stroke-width="0" fill="#fd7e14" fill-rule="evenodd"></path><path d="M-0.56 -0.07 C-0.32 2.67, 0.46 12.34, 0.99 16.61 C1.52 20.87, 0.86 23.67, 2.62 25.53 C4.38 27.39, 6.34 27.57, 11.55 27.78 C16.75 28, 26.39 26.89, 33.86 26.82 C41.34 26.75, 51.54 28.02, 56.4 27.39 C61.26 26.76, 61.88 25.05, 63.02 23.06 C64.16 21.06, 63.2 19.5, 63.25 15.42 C63.31 11.35, 63.63 2.45, 63.37 -1.42 C63.11 -5.29, 62.71 -6.1, 61.69 -7.79 C60.67 -9.48, 59.46 -10.9, 57.26 -11.57 C55.07 -12.25, 51.45 -11.75, 48.52 -11.84 C45.58 -11.92, 41.3 -9.91, 39.66 -12.06 C38.02 -14.22, 39.29 -20.7, 38.7 -24.77 C38.1 -28.84, 37.25 -33.97, 36.09 -36.47 C34.92 -38.97, 33.48 -39.95, 31.72 -39.77 C29.97 -39.6, 26.53 -37.87, 25.54 -35.43 C24.55 -32.98, 25.96 -28.95, 25.79 -25.1 C25.63 -21.26, 25.58 -14.63, 24.53 -12.37 C23.48 -10.11, 21.57 -11.59, 19.49 -11.55 C17.42 -11.5, 13.08 -10, 12.08 -12.08 C11.08 -14.17, 13.6 -19.93, 13.5 -24.07 C13.39 -28.21, 12.68 -34.57, 11.44 -36.92 C10.21 -39.27, 7.86 -38.48, 6.08 -38.17 C4.31 -37.86, 2.05 -38.17, 0.8 -35.06 C-0.44 -31.95, -1.39 -25.46, -1.39 -19.52 C-1.4 -13.58, 0.37 -2.73, 0.77 0.56 M1.35 -1.16 C1.54 1.77, 0.29 13.5, 0.46 18.12 C0.63 22.75, 0.56 25.33, 2.37 26.59 C4.17 27.85, 5.75 25.61, 11.29 25.69 C16.82 25.77, 27.8 26.93, 35.57 27.07 C43.34 27.22, 53.26 26.93, 57.88 26.55 C62.51 26.17, 62.09 26.62, 63.32 24.78 C64.56 22.94, 65.01 19.54, 65.27 15.5 C65.54 11.47, 65.47 4.44, 64.92 0.57 C64.36 -3.31, 63.1 -5.88, 61.96 -7.75 C60.81 -9.62, 60.46 -9.87, 58.04 -10.64 C55.63 -11.41, 51.02 -12.06, 47.48 -12.39 C43.94 -12.72, 38.3 -10.5, 36.81 -12.61 C35.31 -14.72, 38.67 -20.97, 38.52 -25.04 C38.37 -29.11, 36.84 -34.73, 35.9 -37.05 C34.96 -39.37, 34.81 -38.85, 32.87 -38.97 C30.94 -39.08, 25.64 -40.06, 24.31 -37.75 C22.98 -35.45, 25.08 -29.44, 24.9 -25.13 C24.73 -20.83, 24.59 -14.44, 23.24 -11.91 C21.89 -9.38, 18.32 -9.8, 16.82 -9.96 C15.32 -10.11, 15.27 -10.27, 14.25 -12.82 C13.24 -15.36, 11.24 -21.61, 10.74 -25.24 C10.23 -28.86, 12.33 -32.3, 11.23 -34.58 C10.13 -36.86, 6.2 -38.98, 4.17 -38.94 C2.13 -38.89, -0.16 -37.6, -0.99 -34.29 C-1.83 -30.99, -0.85 -24.88, -0.86 -19.1 C-0.86 -13.32, -1.05 -2.55, -1.03 0.41" stroke="#000000" stroke-width="1" fill="none"></path></g></g><g stroke-linecap="round"><g transform="translate(329.66617055283064 555.0449244904098) rotate(0 6.063868140469765 2.9404734312068967)" fill-rule="evenodd"><path d="M-0.05 0.37 L-0.11 -2.38 L5.99 -2.06 L10.65 -1.89 L12.8 9.85 L3.15 7.98 L2.37 10.03 L0.58 -0.61" stroke="none" stroke-width="0" fill="#ffff" fill-rule="evenodd"></path><path d="M-0.07 0.81 C0.11 0.65, 0.65 -0.64, 1.26 -1.49 C1.88 -2.34, 2.23 -3.79, 3.63 -4.27 C5.03 -4.76, 8.32 -4.75, 9.65 -4.38 C10.99 -4.01, 11.07 -2.89, 11.65 -2.05 C12.22 -1.21, 13.11 -0.29, 13.1 0.68 C13.09 1.65, 11.63 2.66, 11.6 3.78 C11.58 4.91, 13.44 6.69, 12.96 7.43 C12.47 8.18, 9.99 7.81, 8.67 8.26 C7.35 8.71, 6.32 10.05, 5.01 10.14 C3.71 10.23, 1.66 9.5, 0.83 8.79 C0.01 8.08, 0.09 7.17, 0.04 5.87 C-0.01 4.57, 0.56 2.14, 0.53 1 M-1.57 0.19 C-1.56 -0.24, -0.4 -2.49, 0.29 -3.1 C0.99 -3.71, 0.92 -3.35, 2.6 -3.46 C4.28 -3.57, 8.52 -4.07, 10.37 -3.76 C12.21 -3.45, 13.58 -2.71, 13.7 -1.59 C13.81 -0.47, 11.4 1.79, 11.06 2.96 C10.72 4.14, 11.44 4.87, 11.66 5.48 C11.87 6.1, 12.56 5.89, 12.35 6.65 C12.13 7.41, 11.99 9.45, 10.37 10.03 C8.75 10.62, 4.16 10.73, 2.61 10.15 C1.07 9.56, 1.79 7.18, 1.1 6.5 C0.42 5.81, -1.49 6.99, -1.5 6.03 C-1.51 5.06, 0.94 1.98, 1.04 0.7" stroke="#000000" stroke-width="1" fill="none"></path></g></g><g stroke-linecap="round"><g transform="translate(492.6943537744669 205.03779986697074) rotate(269.83845249062614 39.690614508913086 170.3488629058348)" fill-rule="evenodd"><path d="M-1.55 -1.07 L78.56 0.3 L75.92 306.64 L38.95 341.67 L-0.14 306.75 L-0.36 1.53" stroke="none" stroke-width="0" fill="#eeeeee" fill-rule="evenodd"></path><path d="M0.84 1.58 C26.12 0.34, 51.46 -0.19, 79.41 1.36 M0.91 0.93 C25.73 0.12, 49 -0.66, 77.47 -0.19 M78.88 -1.34 C76.16 84.94, 75.66 172.47, 78.54 305.86 M78.53 -0.84 C78.41 101.33, 78.71 203.01, 76.97 306.27 M75.69 307.11 C65.91 313.92, 54.79 324.28, 37.15 342.03 M78.11 306.51 C66.29 317.25, 53.42 327.14, 37.5 340.29 M36.27 341.08 C28.19 330.84, 13.37 317.24, 1.82 305.38 M38.61 340.45 C22.71 327.83, 9.62 312.79, 0.42 305.31 M1.27 304.03 C-0.53 212.79, 0.18 119.78, 0.66 0.48 M1.82 305.38 C1.08 226.61, 0.97 148.01, -0.02 -0.64 M0 0 C0 0, 0 0, 0 0 M0 0 C0 0, 0 0, 0 0" stroke="#000000" stroke-width="1" fill="none"></path></g></g><g stroke-linecap="round" transform="translate(374.5379732345723 362.7100486685563) rotate(0 31.830230515057565 21.156620282463507)"><path d="M0.11 0.2 L63.72 -1.09 L61.91 43.11 L-0.26 42.55" stroke="none" stroke-width="0" fill="#868e96"></path><path d="M1.58 1.36 C16.26 1.67, 31.34 0.89, 65.32 0.34 M0.93 0.94 C15.32 -1.16, 30.04 -1.36, 63.77 -0.18 M62.23 -0.15 C61.68 8.7, 62.88 19.89, 62.51 42.96 M62.91 -0.45 C63.03 14.32, 62.58 27.25, 63.08 41.96 M64.08 40.92 C37.69 39.75, 14.7 41.24, 1.28 42.35 M63.48 43.18 C47.29 42.72, 29.89 42.52, -0.46 42.4 M0.33 44.24 C1.79 26.64, -0.7 14.84, 0.57 1.72 M-0.3 41.43 C0.57 29.89, -0.61 16.51, 0.49 0.04" stroke="#000000" stroke-width="1" fill="none"></path></g><g stroke-linecap="round"><g transform="translate(407.2416708634014 382.3337106236679) rotate(0 -1.318571005725346 -10.607373367983424)" fill-rule="evenodd"><path d="M0.2 0.06 L29.11 -21.74 L-30.98 -20 L0.23 0.91" stroke="none" stroke-width="0" fill="#ced4da" fill-rule="evenodd"></path><path d="M1.36 0.74 C12.11 -6.72, 21.57 -12.15, 30.53 -21.15 M0.94 -0.08 C7.18 -6.3, 14.94 -10.69, 30.02 -20.8 M30.04 -21.95 C11.27 -21.13, -5.16 -21.44, -31.13 -19.11 M29.75 -20.5 C13.6 -21.35, -4.39 -20.91, -32.13 -18.92 M-33.17 -21.37 C-25.52 -14.87, -15.65 -8.1, 0.03 -0.65 M-30.9 -19.09 C-25.05 -15.34, -18.68 -11.99, 0.09 0.32 M0 0 C0 0, 0 0, 0 0 M0 0 C0 0, 0 0, 0 0" stroke="#000000" stroke-width="1" fill="none"></path></g></g><g stroke-linecap="round"><g transform="translate(506.3381276192704 386.6285246183777) rotate(0 39.783384278488654 -0.13752285543709775)"><path d="M0.74 1.94 C27.65 0.1, 56.36 -1.22, 78.83 -2.22" stroke="#000000" stroke-width="1.5" fill="none" stroke-dasharray="1.5 7"></path></g></g><g stroke-linecap="round" transform="translate(450.63502076765735 363.0764870996919) rotate(0 31.830230515057565 21.156620282463507)"><path d="M-1.09 -1.75 L64.46 -0.26 L63.89 43.23 L0.67 41.46" stroke="none" stroke-width="0" fill="#868e96"></path><path d="M1.94 0.3 C25.29 1.43, 48.61 -1.4, 62.93 1.82 M-0.58 -0.75 C24.23 0.16, 49.84 -0.76, 63.62 0.44 M63.08 -0.76 C64.96 8.51, 64.27 19.96, 63.11 43.08 M63.93 -0.96 C62.63 8.94, 63.11 19.87, 63.3 41.37 M61.7 42.04 C42.76 43.08, 22.84 41.14, -1.87 43.38 M63.72 42.58 C45.61 42.26, 27.91 43.04, -0.76 41.63 M-1.64 41.29 C0.18 29.5, 1.31 15.46, 0.97 1.95 M0.08 41.91 C-0.43 31.39, 0.41 19.54, 0.1 0.03" stroke="#000000" stroke-width="1" fill="none"></path></g><g stroke-linecap="round"><g transform="translate(483.0951094490697 380.95730403759126) rotate(0 -0.3523919594111362 -10.04378472122361)" fill-rule="evenodd"><path d="M-1.75 0.8 L29.94 -19.76 L-30.86 -19.08 L-0.85 -0.05" stroke="none" stroke-width="0" fill="#ced4da" fill-rule="evenodd"></path><path d="M0.3 1.16 C12.7 -7.31, 20.99 -15.74, 32.02 -18.13 M-0.75 -0.78 C12.01 -7.87, 22.97 -15.6, 30.63 -20.71 M29.43 -18.66 C10.93 -19.45, -5.4 -20.58, -31.01 -21.24 M29.24 -20.83 C13.78 -20.11, -0.64 -20.05, -32.72 -19.54 M-32.05 -20.22 C-23.34 -14.85, -17.96 -12.21, 1.07 -0.37 M-31.5 -19.88 C-19.81 -12.03, -6.73 -5.24, -0.68 0.16 M0 0 C0 0, 0 0, 0 0 M0 0 C0 0, 0 0, 0 0" stroke="#000000" stroke-width="1" fill="none"></path></g></g><g stroke-linecap="round" transform="translate(587.1944094385644 361.61073337513653) rotate(0 31.830230515057565 21.156620282463507)"><path d="M0.8 -0.26 L63.89 0.91 L64.33 41.46 L-0.05 42.85" stroke="none" stroke-width="0" fill="#868e96"></path><path d="M1.16 1.66 C21.79 -1.26, 42.17 1.72, 65.52 1.87 M-0.78 0.11 C18.44 -0.33, 37.2 0.92, 62.94 -0.08 M64.99 -1.15 C64.18 9.18, 62.98 17.84, 62.16 41.42 M62.82 -0.59 C63.42 11.34, 63.42 20.08, 63.87 41.62 M63.19 43.6 C49.78 41.57, 33.97 43.3, -0.37 44.06 M63.53 41.85 C40.51 42.8, 16.42 41.81, 0.16 43.27 M0.59 42.88 C2.07 26.42, 1.32 12.66, -0.61 -1.77 M-0.8 42.8 C0 26.39, 0.07 10.39, -0.54 -0.88" stroke="#000000" stroke-width="1" fill="none"></path></g><g stroke-linecap="round"><g transform="translate(620.200334599886 378.75480425412206) rotate(0 -0.300303184204779 -9.83551787537294)" fill-rule="evenodd"><path d="M-0.26 0.23 L31.11 -19.32 L-32.63 -19.79 L0.54 1.64" stroke="none" stroke-width="0" fill="#ced4da" fill-rule="evenodd"></path><path d="M1.66 0.34 C10.8 -8.85, 25.77 -14.19, 32.07 -20.14 M0.11 -0.18 C6.64 -4.63, 15.17 -10.14, 30.12 -20.97 M29.04 -19.34 C14.05 -20.07, -2.6 -20.94, -32.67 -20.77 M29.61 -20.35 C10.73 -20.79, -11.34 -20.14, -32.47 -20.56 M-30.49 -19.71 C-26.03 -17.55, -17.88 -12.05, 1.74 1.3 M-32.24 -19.65 C-21.68 -14.42, -12.94 -7.45, 0.96 0.74 M0 0 C0 0, 0 0, 0 0 M0 0 C0 0, 0 0, 0 0" stroke="#000000" stroke-width="1" fill="none"></path></g></g><g transform="translate(485.01381121002214 431.4556138859497) rotate(0 47 15.5)"><text x="47" y="22" font-family="Virgil, Segoe UI Emoji" font-size="25.22089074670173px" fill="#000000" text-anchor="middle" style="white-space: pre;" direction="ltr">Queue 1</text></g><g stroke-linecap="round"><g transform="translate(286.9455009323058 383.33045166415354) rotate(0 31.51703329916313 -6.169751352871955)" fill-rule="evenodd"><path d="M0.63 -1.53 L-1.11 22.65 L3.57 27.5 L54.62 25.98 L61.85 26.75 L65.38 24.09 L65.43 8.72 L62.04 -10.5 L57.94 -11.31 L37.76 -14.2 L38.04 -36.36 L34.72 -38.36 L28.23 -39.74 L23.74 -35.75 L24.09 -12.52 L22.68 -10.36 L14.52 -11.19 L13.38 -11.3 L13.36 -35.75 L6.6 -37.5 L3.18 -38.36 L-1.37 -35.03 L1.2 -0.27" stroke="none" stroke-width="0" fill="#fd7e14" fill-rule="evenodd"></path><path d="M0.2 -0.7 C0.04 2.09, -0.69 13.1, -0.26 17.74 C0.16 22.38, 0.65 25.74, 2.77 27.15 C4.88 28.56, 7.23 26.36, 12.42 26.2 C17.6 26.03, 26.54 26.05, 33.87 26.15 C41.2 26.25, 51.59 27.13, 56.4 26.79 C61.2 26.45, 61.27 26.3, 62.7 24.13 C64.12 21.96, 64.71 18.14, 64.95 13.77 C65.19 9.41, 64.56 1.77, 64.12 -2.06 C63.67 -5.88, 63.45 -7.51, 62.29 -9.19 C61.14 -10.87, 59.53 -11.83, 57.18 -12.16 C54.83 -12.5, 51.34 -11.21, 48.18 -11.21 C45.02 -11.2, 40.12 -9.81, 38.23 -12.13 C36.33 -14.46, 37.1 -21.17, 36.8 -25.16 C36.5 -29.16, 37.52 -33.65, 36.44 -36.11 C35.37 -38.57, 32.29 -39.79, 30.35 -39.93 C28.41 -40.07, 25.51 -39.5, 24.79 -36.97 C24.07 -34.45, 26.29 -28.86, 26.03 -24.78 C25.77 -20.7, 24.6 -14.63, 23.22 -12.5 C21.83 -10.36, 19.64 -11.87, 17.71 -11.97 C15.79 -12.07, 12.62 -11.16, 11.67 -13.11 C10.73 -15.05, 12.01 -19.75, 12.04 -23.64 C12.06 -27.54, 13.04 -34.11, 11.83 -36.46 C10.62 -38.81, 6.7 -38.01, 4.75 -37.76 C2.81 -37.5, 0.88 -37.8, 0.18 -34.93 C-0.52 -32.06, 0.54 -26.32, 0.56 -20.52 C0.59 -14.73, 0.51 -3.6, 0.32 -0.16 M-1.15 1.55 C-1.57 4.55, -2.06 12.22, -1.44 16.19 C-0.82 20.17, 0.24 23.61, 2.59 25.4 C4.93 27.19, 7.12 26.82, 12.62 26.93 C18.12 27.04, 28.04 26.26, 35.59 26.05 C43.13 25.83, 53.34 26.19, 57.88 25.64 C62.42 25.09, 61.78 24.87, 62.83 22.76 C63.88 20.65, 64.27 16.84, 64.2 12.98 C64.13 9.12, 62.62 3.41, 62.4 -0.4 C62.18 -4.21, 63.63 -8.03, 62.88 -9.88 C62.13 -11.74, 60.57 -11.28, 57.92 -11.54 C55.27 -11.8, 50.25 -11.24, 46.97 -11.43 C43.7 -11.63, 39.56 -10.35, 38.28 -12.72 C37 -15.08, 39.59 -21.67, 39.29 -25.63 C38.98 -29.6, 37.86 -34.23, 36.45 -36.5 C35.03 -38.76, 32.38 -39.22, 30.78 -39.21 C29.18 -39.2, 27.74 -38.88, 26.83 -36.45 C25.91 -34.02, 25.59 -28.7, 25.26 -24.64 C24.94 -20.58, 26.15 -14.45, 24.89 -12.11 C23.64 -9.77, 19.63 -10.23, 17.76 -10.6 C15.88 -10.98, 14.56 -12.05, 13.63 -14.38 C12.7 -16.71, 12.48 -20.73, 12.17 -24.59 C11.87 -28.45, 12.88 -35.25, 11.82 -37.53 C10.76 -39.82, 7.48 -38.27, 5.8 -38.31 C4.12 -38.34, 2.94 -40.7, 1.72 -37.75 C0.49 -34.81, -0.96 -26.81, -1.53 -20.63 C-2.1 -14.46, -2.05 -3.88, -1.7 -0.68" stroke="#000000" stroke-width="1" fill="none"></path></g></g><g stroke-linecap="round"><g transform="translate(327.13262126761356 387.94024848518416) rotate(0 6.559001024660404 3.3060809577677475)" fill-rule="evenodd"><path d="M0.55 -1.92 L-0.38 -3.63 L3.41 -1.66 L11.19 -4.08 L12.58 6.88 L2.44 7.3 L0.66 7.6 L1.28 0.03" stroke="none" stroke-width="0" fill="#ffff" fill-rule="evenodd"></path><path d="M-0.7 -0.44 C-0.46 -0.7, 1.41 -0.85, 2.4 -1.34 C3.39 -1.84, 4.3 -2.9, 5.25 -3.4 C6.19 -3.91, 7.11 -4.6, 8.06 -4.37 C9.02 -4.15, 10.23 -2.84, 10.97 -2.05 C11.71 -1.26, 12.22 -0.9, 12.5 0.36 C12.79 1.61, 12.88 4.17, 12.68 5.48 C12.48 6.78, 12.08 7.62, 11.3 8.18 C10.53 8.75, 9.32 8.55, 8.03 8.86 C6.75 9.17, 4.91 10.12, 3.61 10.05 C2.31 9.99, 0.73 9.39, 0.24 8.46 C-0.25 7.52, 0.63 6, 0.67 4.44 C0.71 2.88, 0.66 -0.06, 0.46 -0.9 M1.14 -1.72 C1.22 -2.3, 1.37 -2.81, 2.02 -2.88 C2.68 -2.95, 4.09 -1.99, 5.07 -2.13 C6.06 -2.28, 6.68 -3.83, 7.94 -3.74 C9.21 -3.65, 11.69 -2.62, 12.67 -1.59 C13.65 -0.55, 13.7 1.47, 13.8 2.47 C13.91 3.47, 13.35 3.52, 13.3 4.41 C13.24 5.29, 14.13 6.7, 13.48 7.79 C12.84 8.89, 10.96 10.58, 9.4 10.95 C7.85 11.33, 5.67 10.24, 4.14 10.02 C2.6 9.8, 0.98 10.68, 0.2 9.65 C-0.58 8.62, -0.66 5.2, -0.54 3.84 C-0.42 2.48, 1.1 2.29, 0.93 1.46" stroke="#000000" stroke-width="1" fill="none"></path></g></g><g stroke-linecap="round" transform="translate(26.885984073008558 380.5463776772802) rotate(0 51.38163725071803 18.333354136406385)"><path d="M7.83 -1.61 L98.68 1.47 L101.72 3.18 L102.81 30.54 L100.89 32.49 L91.72 36.43 L4.91 34.12 L0.41 33.39 L1.1 7.64 L2.45 0.8 L8.35 -0.5" stroke="none" stroke-width="0" fill="#ced4da"></path><path d="M9.17 0 M9.17 0 C31.38 -1.84, 56.14 -0.58, 93.6 0 M9.17 0 C34.49 -0.61, 61.82 -0.6, 93.6 0 M93.6 0 C99.47 -0.62, 102.29 1.87, 102.76 9.17 M93.6 0 C100.66 1.22, 101.06 4.7, 102.76 9.17 M102.76 9.17 C103 17.53, 103.99 21.9, 102.76 27.5 M102.76 9.17 C102.04 13.99, 102.94 17.62, 102.76 27.5 M102.76 27.5 C103.94 32.26, 99.97 35.78, 93.6 36.67 M102.76 27.5 C101.52 35.46, 98.41 36.74, 93.6 36.67 M93.6 36.67 C66.38 36.59, 42.88 37.81, 9.17 36.67 M93.6 36.67 C61.57 36.91, 31.18 36.64, 9.17 36.67 M9.17 36.67 C3.81 38.22, -0.35 31.89, 0 27.5 M9.17 36.67 C3.67 35.55, 0.19 32.66, 0 27.5 M0 27.5 C-0.28 23.11, 1.18 15.95, 0 9.17 M0 27.5 C-0.8 20.9, -0.69 13.13, 0 9.17 M0 9.17 C-0.84 3.95, 1.78 0.43, 9.17 0 M0 9.17 C-1 5.05, 1.18 -1.85, 9.17 0" stroke="#000000" stroke-width="1" fill="none"></path></g><g stroke-linecap="round" transform="translate(55.35092865321599 339.0551025264676) rotate(0 34.73688152161219 33.53073980211176)"><path d="M35.82 -0.5 C42.23 -0.67, 49.91 3.41, 55.32 7.56 C60.73 11.7, 66.29 18.21, 68.28 24.37 C70.26 30.54, 69.62 38.44, 67.24 44.56 C64.85 50.67, 59.46 57.34, 53.99 61.06 C48.51 64.78, 41 66.88, 34.38 66.89 C27.76 66.9, 19.76 65.19, 14.26 61.13 C8.76 57.07, 3.38 49.02, 1.36 42.53 C-0.66 36.04, -0.11 28.33, 2.14 22.19 C4.38 16.05, 8.78 9.39, 14.84 5.69 C20.9 1.98, 33.99 0.7, 38.49 -0.06 C42.99 -0.82, 41.81 0.41, 41.86 1.11 M33.88 -1.47 C40.2 -2.12, 49.45 0.82, 54.83 4.71 C60.2 8.61, 63.82 15.63, 66.13 21.89 C68.43 28.15, 70.33 36, 68.65 42.28 C66.97 48.57, 61.37 55.67, 56.05 59.6 C50.73 63.52, 43.8 65.59, 36.75 65.83 C29.69 66.06, 19.26 64.49, 13.69 61 C8.12 57.52, 5.26 51.16, 3.34 44.93 C1.43 38.7, 0.61 30, 2.19 23.61 C3.77 17.21, 7.45 10.65, 12.81 6.56 C18.16 2.47, 31.01 0.14, 34.3 -0.91 C37.59 -1.96, 32.79 -0.66, 32.55 0.24" stroke="none" stroke-width="0" fill="#ced4da"></path><path d="M18.47 3.07 C23.73 -0.23, 31.75 -0.69, 38.44 0.18 C45.13 1.05, 53.54 3.58, 58.6 8.3 C63.67 13.01, 67.5 21.96, 68.83 28.46 C70.16 34.96, 69.52 41.66, 66.59 47.3 C63.67 52.94, 57.45 59.1, 51.29 62.3 C45.14 65.5, 36.48 67.34, 29.69 66.51 C22.9 65.68, 15.26 61.96, 10.56 57.34 C5.86 52.72, 2.77 45.21, 1.5 38.78 C0.22 32.35, -0.53 24.82, 2.9 18.76 C6.34 12.7, 18.16 5.27, 22.12 2.42 C26.07 -0.42, 26.57 1.28, 26.63 1.68 M41.21 0.33 C47.66 1.26, 54.67 6.79, 59.47 11.51 C64.28 16.23, 68.95 22.06, 70.05 28.64 C71.14 35.22, 69.29 44.94, 66.03 51 C62.78 57.06, 56.87 62.19, 50.5 64.99 C44.14 67.78, 34.6 69.33, 27.85 67.78 C21.09 66.24, 14.76 60.95, 9.98 55.7 C5.2 50.45, -0.13 42.89, -0.82 36.27 C-1.5 29.66, 2.19 21.49, 5.88 16.03 C9.57 10.57, 15.35 5.92, 21.31 3.5 C27.28 1.09, 38.46 1.89, 41.67 1.56 C44.87 1.23, 40.75 1.26, 40.53 1.53" stroke="#000000" stroke-width="1" fill="none"></path></g><g stroke-linecap="round" transform="translate(10 369.4498738578787) rotate(0 24.122834390008478 23.399149358308215)"><path d="M17.72 0.95 C22.19 -0.42, 29.24 0.64, 33.85 2.66 C38.46 4.68, 42.99 8.58, 45.4 13.07 C47.81 17.56, 49.41 24.78, 48.32 29.61 C47.22 34.45, 43.15 39.36, 38.83 42.09 C34.5 44.82, 27.64 46.3, 22.38 46 C17.13 45.69, 11.05 43.59, 7.31 40.26 C3.56 36.93, 0.32 31.06, -0.06 26 C-0.44 20.95, 1.83 14.19, 5.03 9.96 C8.23 5.72, 16.31 2.17, 19.12 0.61 C21.92 -0.94, 21.71 0.26, 21.86 0.62 M22.29 1.1 C26.97 0.44, 33.19 2.25, 37.2 4.8 C41.21 7.35, 45.06 11.74, 46.33 16.41 C47.61 21.07, 46.94 28.39, 44.85 32.79 C42.76 37.2, 38.24 40.48, 33.78 42.83 C29.31 45.17, 23.04 47.7, 18.06 46.87 C13.08 46.03, 7.01 41.7, 3.9 37.8 C0.78 33.9, -0.85 28.73, -0.62 23.47 C-0.39 18.21, 1.63 9.88, 5.26 6.23 C8.88 2.58, 18.41 2.41, 21.14 1.59 C23.87 0.78, 21.61 1.35, 21.64 1.34" stroke="none" stroke-width="0" fill="#ced4da"></path><path d="M26.9 -0.66 C31.86 -0.27, 38.78 3.97, 42.18 7.89 C45.57 11.81, 46.98 17.74, 47.26 22.86 C47.53 27.98, 47.05 34.71, 43.84 38.64 C40.64 42.57, 33.37 45.63, 28.01 46.44 C22.66 47.24, 16.17 45.94, 11.73 43.48 C7.29 41.01, 3.18 36.09, 1.37 31.64 C-0.44 27.19, -0.73 21.56, 0.85 16.76 C2.44 11.96, 6.3 5.55, 10.9 2.84 C15.5 0.14, 25.35 0.74, 28.46 0.53 C31.56 0.31, 29.58 1.33, 29.53 1.56 M16.11 0.8 C20.5 -1.01, 27.48 -1.34, 32.44 0.67 C37.39 2.68, 43.48 8.15, 45.86 12.87 C48.23 17.58, 47.62 23.94, 46.69 28.96 C45.75 33.97, 43.91 39.99, 40.23 42.97 C36.55 45.95, 29.71 47.02, 24.62 46.85 C19.52 46.67, 13.81 45.39, 9.68 41.91 C5.55 38.44, 1.03 30.87, -0.18 26 C-1.38 21.13, -0.16 16.66, 2.42 12.7 C5 8.74, 12.89 4.07, 15.31 2.23 C17.73 0.4, 16.5 1.66, 16.94 1.7" stroke="#000000" stroke-width="1" fill="none"></path></g><g stroke-linecap="round" transform="translate(36.05266114120536 350.6340630336719) rotate(0 16.55939800741814 14.885644421280603)"><path d="M23.16 0.9 C26.52 1.83, 30.33 4.61, 31.87 7.64 C33.42 10.67, 33.26 15.79, 32.42 19.1 C31.58 22.41, 29.7 25.69, 26.85 27.49 C23.99 29.3, 19.02 30.19, 15.3 29.92 C11.58 29.65, 7.02 28.09, 4.52 25.86 C2.02 23.62, 0.55 19.56, 0.3 16.51 C0.06 13.45, 1.18 10.33, 3.06 7.54 C4.94 4.75, 8.01 0.85, 11.56 -0.22 C15.12 -1.28, 22.15 0.79, 24.4 1.17 C26.66 1.54, 25.24 1.76, 25.1 2.02 M22.13 0.54 C25.64 0.88, 29.57 3.35, 31.36 5.76 C33.15 8.18, 33.38 11.94, 32.87 15.04 C32.35 18.14, 31.03 22, 28.25 24.35 C25.48 26.69, 19.68 28.85, 16.21 29.11 C12.74 29.37, 10 27.82, 7.43 25.93 C4.86 24.04, 1.53 20.91, 0.8 17.76 C0.06 14.62, 1.7 9.83, 3.01 7.07 C4.33 4.31, 5.42 2.22, 8.69 1.21 C11.96 0.19, 20.43 1.08, 22.62 0.99 C24.81 0.9, 22.28 0.54, 21.81 0.67" stroke="none" stroke-width="0" fill="#ced4da"></path><path d="M11.64 0.32 C14.8 -0.6, 20.39 -1.05, 23.72 0.53 C27.05 2.11, 30.07 6.84, 31.62 9.79 C33.17 12.74, 33.98 15.46, 33.02 18.25 C32.07 21.03, 28.98 24.63, 25.88 26.49 C22.77 28.36, 17.97 29.72, 14.4 29.44 C10.82 29.15, 6.68 27.15, 4.44 24.77 C2.2 22.39, 1.27 18.3, 0.97 15.15 C0.67 12, 0.42 8.36, 2.65 5.88 C4.88 3.39, 12.06 1.18, 14.37 0.24 C16.68 -0.7, 16.62 0.13, 16.5 0.25 M19.4 -0.05 C22.76 0.5, 26.22 3.88, 28.64 6.25 C31.05 8.62, 33.68 10.93, 33.91 14.17 C34.14 17.41, 32.28 22.97, 30.03 25.7 C27.77 28.43, 24.05 30, 20.37 30.55 C16.69 31.09, 11.06 30.87, 7.95 28.97 C4.84 27.07, 3.02 22.56, 1.72 19.13 C0.41 15.7, -1.27 11.44, 0.12 8.39 C1.5 5.34, 6.58 2.09, 10.03 0.82 C13.49 -0.44, 19.21 0.68, 20.83 0.79 C22.46 0.9, 20.17 1.28, 19.79 1.47" stroke="#000000" stroke-width="1" fill="none"></path></g><g stroke-linecap="round" transform="translate(101.66677068203467 378.6165509260814) rotate(0 20.504409231507225 19.298267512006767)"><path d="M14.51 1.31 C18.36 -0.08, 24.08 -0.26, 28.28 1.38 C32.49 3.01, 37.61 7.43, 39.75 11.13 C41.89 14.82, 42.28 19.71, 41.12 23.55 C39.96 27.38, 36.42 31.62, 32.77 34.15 C29.12 36.68, 23.67 38.83, 19.23 38.73 C14.79 38.64, 9.19 36.52, 6.13 33.6 C3.08 30.67, 1.48 25.32, 0.9 21.19 C0.31 17.06, -0.2 12.32, 2.61 8.82 C5.43 5.32, 14.66 1.58, 17.79 0.2 C20.91 -1.18, 21.29 0.15, 21.37 0.55 M18.63 1.1 C22.43 0.33, 28.02 1.08, 31.38 3.32 C34.75 5.56, 37.76 10.75, 38.83 14.53 C39.9 18.31, 39.52 22.19, 37.8 26.01 C36.09 29.83, 32.49 35.4, 28.57 37.45 C24.64 39.49, 18.52 39.23, 14.27 38.27 C10.02 37.31, 5.64 35.33, 3.07 31.69 C0.5 28.05, -1.63 20.54, -1.15 16.44 C-0.67 12.34, 2.56 9.7, 5.93 7.09 C9.31 4.48, 16.98 2.04, 19.08 0.78 C21.18 -0.48, 18.59 -0.73, 18.51 -0.48" stroke="none" stroke-width="0" fill="#ced4da"></path><path d="M22.54 -0.01 C26.71 0.3, 31.05 2.73, 34.28 5.82 C37.5 8.91, 41.56 14.36, 41.9 18.51 C42.24 22.67, 39.19 27.54, 36.32 30.73 C33.46 33.91, 28.88 36.66, 24.71 37.62 C20.53 38.57, 15.15 38.04, 11.25 36.45 C7.36 34.86, 3.19 31.91, 1.33 28.07 C-0.54 24.24, -1.21 17.55, 0.04 13.44 C1.29 9.33, 4.7 5.49, 8.81 3.4 C12.92 1.31, 21.79 1.39, 24.72 0.9 C27.65 0.4, 26.57 0.12, 26.37 0.42 M13.58 0.13 C17.59 -1.15, 24.61 0.28, 28.58 2.11 C32.55 3.94, 35.22 7.38, 37.38 11.11 C39.54 14.83, 42.08 20.57, 41.56 24.46 C41.04 28.34, 37.61 31.91, 34.26 34.41 C30.9 36.91, 26.06 39.73, 21.43 39.46 C16.81 39.18, 10.21 35.4, 6.5 32.76 C2.79 30.11, -0.05 27.33, -0.8 23.58 C-1.55 19.83, -0.53 14, 2.01 10.23 C4.55 6.47, 12.27 2.65, 14.43 1 C16.58 -0.64, 14.89 0.17, 14.95 0.37" stroke="#000000" stroke-width="1" fill="none"></path></g><g stroke-linecap="round" transform="translate(16.134627877951516 375.3796873183822) rotate(0 21.245712417459885 20.676630834849334)"><path d="M22.12 -0.5 C26.39 -0.51, 31.48 2.79, 34.88 5.89 C38.29 8.99, 41.86 13.85, 42.56 18.11 C43.27 22.37, 41.63 27.76, 39.11 31.46 C36.6 35.16, 31.68 38.92, 27.47 40.32 C23.26 41.71, 17.92 41.29, 13.85 39.82 C9.78 38.36, 5.33 35.5, 3.06 31.51 C0.79 27.53, -0.64 20.47, 0.21 15.91 C1.05 11.35, 4.18 6.85, 8.11 4.15 C12.03 1.45, 20.81 0.31, 23.76 -0.28 C26.7 -0.87, 25.74 0.25, 25.78 0.63 M29.89 0.52 C33.84 1.55, 37.6 5.38, 39.68 9.18 C41.75 12.99, 43.43 18.84, 42.35 23.33 C41.27 27.82, 36.66 33.28, 33.19 36.12 C29.72 38.96, 25.8 40.47, 21.54 40.39 C17.28 40.31, 10.95 38.58, 7.63 35.62 C4.3 32.67, 2.53 26.95, 1.56 22.68 C0.59 18.4, -0.54 13.5, 1.83 9.97 C4.2 6.44, 11.13 2.98, 15.75 1.52 C20.38 0.05, 27.56 1.16, 29.57 1.16 C31.57 1.16, 27.97 1.31, 27.77 1.51" stroke="none" stroke-width="0" fill="#ced4da"></path><path d="M11.48 1.27 C15.35 -0.7, 21.4 0.44, 25.95 1.47 C30.49 2.5, 36 4.21, 38.77 7.47 C41.53 10.73, 42.94 16.5, 42.54 21.01 C42.14 25.52, 39.52 31.24, 36.37 34.53 C33.22 37.82, 27.94 40.3, 23.64 40.76 C19.35 41.21, 14.48 39.64, 10.61 37.26 C6.73 34.88, 1.87 30.57, 0.4 26.48 C-1.07 22.38, -0.58 16.92, 1.79 12.69 C4.17 8.46, 12.27 3.21, 14.66 1.12 C17.04 -0.96, 16.01 -0.03, 16.11 0.19 M19.09 0.66 C23.6 0.02, 30.72 0.27, 34.7 2.96 C38.69 5.66, 41.83 12.18, 42.98 16.83 C44.14 21.48, 43.83 26.83, 41.62 30.87 C39.41 34.91, 34 39.52, 29.74 41.05 C25.48 42.58, 20.59 41.69, 16.05 40.02 C11.5 38.35, 4.9 34.81, 2.47 31.03 C0.05 27.24, 0.65 21.47, 1.51 17.33 C2.36 13.18, 4.53 8.88, 7.61 6.15 C10.69 3.41, 18.07 1.83, 19.97 0.92 C21.87 0, 19.08 0.58, 18.99 0.64" stroke="#ced4da" stroke-width="1" fill="none"></path></g><g stroke-linecap="round" transform="translate(73.42217386074458 359.44540300528735) rotate(0 25.60867121747401 27.50560982617575)"><path d="M26.43 -0.23 C31.84 -0.33, 39.69 3.72, 43.91 7.72 C48.12 11.72, 51.17 18.1, 51.73 23.77 C52.29 29.44, 50.35 36.71, 47.26 41.75 C44.18 46.78, 38.51 52.08, 33.21 53.99 C27.91 55.9, 20.39 55.57, 15.45 53.21 C10.51 50.85, 6.19 45.1, 3.58 39.83 C0.97 34.56, -1.23 27.3, -0.21 21.6 C0.81 15.9, 4.77 9.15, 9.7 5.63 C14.63 2.12, 25.63 1.08, 29.38 0.5 C33.13 -0.08, 32.25 1.59, 32.22 2.14 M32.57 1.16 C37.39 2.4, 42.94 8.31, 45.8 13.09 C48.65 17.86, 50.29 23.89, 49.69 29.8 C49.09 35.71, 46.2 44.29, 42.19 48.54 C38.18 52.79, 31.13 54.98, 25.65 55.31 C20.16 55.65, 13.65 54.41, 9.27 50.55 C4.89 46.68, 0.42 37.86, -0.64 32.12 C-1.71 26.38, 0.07 21, 2.9 16.11 C5.72 11.21, 11.26 5.37, 16.31 2.75 C21.36 0.12, 30.43 0.47, 33.21 0.37 C35.99 0.26, 33.26 1.77, 33.02 2.11" stroke="none" stroke-width="0" fill="#ced4da"></path><path d="M13.07 2.88 C17.75 0.15, 27.01 -0.09, 32.39 1.28 C37.77 2.64, 42.34 6.54, 45.35 11.1 C48.35 15.65, 50.65 22.78, 50.43 28.62 C50.21 34.46, 47.74 41.61, 44.03 46.14 C40.33 50.66, 33.74 55.11, 28.21 55.75 C22.68 56.39, 15.4 53.36, 10.84 50 C6.28 46.64, 2.3 41.04, 0.86 35.57 C-0.59 30.1, -0.19 22.83, 2.16 17.18 C4.51 11.53, 12.73 4.04, 14.95 1.66 C17.18 -0.72, 15.44 2.39, 15.52 2.93 M22.26 1.13 C27.24 0.24, 32.97 1.88, 37.72 5.02 C42.47 8.16, 48.66 14.56, 50.78 19.96 C52.9 25.37, 52.34 32.04, 50.44 37.45 C48.54 42.87, 44.43 49.78, 39.39 52.45 C34.35 55.12, 26.01 54.51, 20.22 53.46 C14.43 52.41, 8.18 50.4, 4.65 46.15 C1.12 41.9, -1.33 34.07, -0.97 27.95 C-0.61 21.83, 2.88 14.19, 6.8 9.42 C10.71 4.64, 20 0.85, 22.52 -0.68 C25.04 -2.21, 22.13 -0.61, 21.91 0.21" stroke="#ced4da" stroke-width="1" fill="none"></path></g><g stroke-linecap="round" transform="translate(91.25339678253727 378.7941768140434) rotate(0 24.47050805225291 18.77969222614756)"><path d="M20.7 1.04 C25.55 0.45, 33.25 1.51, 37.69 3.52 C42.13 5.53, 45.88 9.35, 47.35 13.07 C48.81 16.79, 48.32 22.16, 46.47 25.84 C44.62 29.52, 40.66 33.14, 36.23 35.15 C31.79 37.17, 25.05 38.88, 19.86 37.94 C14.67 37.01, 8.34 32.91, 5.07 29.54 C1.81 26.17, 0.07 21.66, 0.28 17.72 C0.48 13.77, 2.21 8.85, 6.3 5.86 C10.39 2.86, 21.04 0.66, 24.81 -0.24 C28.57 -1.15, 28.78 -0.02, 28.88 0.44 M23.82 -1.47 C28.66 -1.86, 36.19 0.19, 40.06 2.86 C43.94 5.52, 45.97 10.51, 47.06 14.51 C48.14 18.52, 48.81 23.36, 46.58 26.88 C44.34 30.4, 38.41 34.23, 33.63 35.64 C28.85 37.05, 23.09 36.53, 17.87 35.33 C12.65 34.13, 5.02 31.62, 2.32 28.45 C-0.37 25.27, 0.59 20.29, 1.71 16.29 C2.83 12.28, 5.51 7.19, 9.06 4.43 C12.62 1.67, 20.5 0.58, 23.03 -0.25 C25.56 -1.08, 24.34 -0.82, 24.26 -0.54" stroke="none" stroke-width="0" fill="#ced4da"></path><path d="M22.94 0.97 C28 0.54, 35.37 0.82, 39.61 2.94 C43.85 5.06, 47.3 9.68, 48.35 13.68 C49.41 17.68, 48.33 23.29, 45.94 26.94 C43.55 30.58, 38.59 34.06, 34 35.57 C29.41 37.09, 23.5 37.14, 18.42 36.02 C13.33 34.91, 6.54 32.1, 3.52 28.88 C0.49 25.66, -0.51 20.68, 0.27 16.72 C1.04 12.75, 4.34 7.97, 8.16 5.08 C11.97 2.18, 20.3 0.23, 23.15 -0.66 C26.01 -1.55, 25.17 -0.65, 25.29 -0.27 M22.4 -0.98 C27.64 -1.62, 34.49 1.48, 38.97 4.03 C43.45 6.58, 47.94 10.39, 49.28 14.32 C50.62 18.24, 49.16 24.14, 47 27.6 C44.84 31.06, 41.2 33.68, 36.34 35.09 C31.47 36.49, 22.83 37.03, 17.81 36.02 C12.79 35.01, 9.02 32, 6.22 29.03 C3.42 26.06, 0.94 21.9, 1.01 18.19 C1.08 14.49, 3.38 9.76, 6.64 6.78 C9.91 3.81, 18.2 1.5, 20.6 0.32 C22.99 -0.86, 20.59 -0.45, 21.01 -0.31" stroke="#ced4da" stroke-width="1" fill="none"></path></g><g stroke-linecap="round" transform="translate(48.382584225876826 352.2370362922192) rotate(0 20.486936973979198 20.676630834849362)"><path d="M26.87 1.11 C31.15 1.98, 35.75 5.17, 38.11 8.65 C40.48 12.13, 41.58 17.49, 41.04 21.99 C40.51 26.49, 38.1 32.37, 34.9 35.65 C31.71 38.93, 26.12 41.4, 21.86 41.67 C17.6 41.95, 13 39.9, 9.32 37.3 C5.64 34.69, 1.07 30.31, -0.22 26.06 C-1.52 21.81, -0.44 15.82, 1.54 11.8 C3.51 7.79, 7.23 3.58, 11.63 1.96 C16.04 0.35, 24.92 1.82, 27.97 2.1 C31.03 2.38, 29.93 3.41, 29.94 3.63 M25.87 1.44 C29.81 2.39, 34.49 4.89, 36.85 8.78 C39.22 12.67, 40.73 20.12, 40.06 24.78 C39.39 29.44, 36.16 33.76, 32.82 36.74 C29.47 39.72, 24.43 42.87, 19.99 42.65 C15.56 42.43, 9.5 38.21, 6.21 35.41 C2.93 32.61, 0.81 29.88, 0.29 25.84 C-0.24 21.8, 0.92 15.43, 3.06 11.18 C5.2 6.93, 9.11 1.98, 13.12 0.36 C17.12 -1.26, 24.9 1.51, 27.09 1.47 C29.29 1.42, 26.44 0.02, 26.29 0.09" stroke="none" stroke-width="0" fill="#ced4da"></path><path d="M20.18 0.59 C24.37 0.1, 28.67 1.66, 31.92 4.14 C35.16 6.61, 38.55 11.18, 39.66 15.45 C40.77 19.71, 40.48 25.53, 38.57 29.72 C36.66 33.91, 32.32 38.87, 28.21 40.58 C24.1 42.28, 18.08 41.37, 13.9 39.97 C9.73 38.58, 5.44 35.71, 3.16 32.19 C0.88 28.66, -0.3 23.38, 0.23 18.83 C0.76 14.28, 2.98 7.94, 6.33 4.87 C9.68 1.8, 17.69 1.15, 20.3 0.41 C22.91 -0.33, 21.93 0.17, 21.98 0.41 M13.4 1.97 C17.36 0.59, 25.07 1.46, 29.45 3.02 C33.83 4.59, 37.62 7.49, 39.68 11.35 C41.75 15.22, 43.07 22.07, 41.84 26.21 C40.62 30.34, 36.25 33.41, 32.34 36.16 C28.42 38.91, 22.83 42.59, 18.37 42.69 C13.9 42.79, 8.48 40.01, 5.53 36.76 C2.57 33.5, 0.87 27.9, 0.64 23.17 C0.42 18.44, 1.85 12.21, 4.19 8.39 C6.54 4.57, 13.1 1.22, 14.7 0.24 C16.31 -0.74, 13.89 2.06, 13.82 2.5" stroke="#ced4da" stroke-width="1" fill="none"></path></g><g stroke-linecap="round" transform="translate(30.930749025830437 362.859892500949) rotate(0 28.26438526965643 25.798365078344148)"><path d="M21.53 1.53 C27 -0.22, 34.78 0.4, 40.07 2.68 C45.36 4.96, 50.66 10.23, 53.26 15.2 C55.86 20.18, 57.12 27.09, 55.68 32.52 C54.25 37.96, 49.7 44.82, 44.65 47.84 C39.6 50.86, 31.42 51.36, 25.37 50.62 C19.33 49.88, 12.57 47.26, 8.37 43.39 C4.17 39.52, 0.67 32.87, 0.17 27.4 C-0.33 21.93, 0.98 15.15, 5.38 10.57 C9.79 5.99, 22.22 1.46, 26.59 -0.1 C30.96 -1.65, 31.67 0.68, 31.61 1.25 M20.54 -0.25 C25.75 -1.9, 32.55 -0.74, 38.17 1.53 C43.79 3.8, 51.27 8.43, 54.25 13.38 C57.24 18.33, 57.38 25.89, 56.06 31.22 C54.74 36.55, 51.46 41.96, 46.33 45.34 C41.2 48.72, 31.3 51.57, 25.27 51.49 C19.25 51.41, 14.25 48.71, 10.18 44.87 C6.12 41.03, 1.94 34.05, 0.88 28.45 C-0.19 22.85, 0.5 15.98, 3.79 11.26 C7.07 6.54, 18.04 1.82, 20.57 0.13 C23.1 -1.56, 19.08 0.35, 18.96 1.11" stroke="none" stroke-width="0" fill="#ced4da"></path><path d="M15.46 2.3 C20.38 -0.75, 28.35 -1.42, 34.12 -0.2 C39.89 1.01, 46.36 5.2, 50.06 9.59 C53.76 13.98, 56.29 20.72, 56.32 26.16 C56.36 31.6, 54.36 38.08, 50.27 42.24 C46.18 46.39, 37.91 50.16, 31.77 51.09 C25.64 52.02, 18.45 50.7, 13.48 47.82 C8.5 44.94, 3.96 39.17, 1.92 33.8 C-0.13 28.42, -1.54 21.01, 1.21 15.56 C3.97 10.11, 15.08 3.53, 18.42 1.1 C21.77 -1.33, 21.24 0.58, 21.31 0.99 M35.17 1.5 C40.97 2.6, 48.32 6.39, 51.88 10.82 C55.45 15.25, 56.85 22.77, 56.57 28.06 C56.28 33.35, 54.39 38.85, 50.16 42.56 C45.94 46.27, 37.11 49.61, 31.2 50.3 C25.29 51, 19.5 49.39, 14.69 46.72 C9.88 44.05, 4.47 39.24, 2.36 34.3 C0.25 29.35, 0.1 22.23, 2.03 17.05 C3.96 11.87, 8.71 6.12, 13.94 3.23 C19.18 0.35, 29.9 0.25, 33.44 -0.25 C36.98 -0.76, 35.17 -0.37, 35.19 0.21" stroke="#ced4da" stroke-width="1" fill="none"></path></g><g transform="translate(17.8377945725249 382.1878215150239) rotate(0 58.5 13)"><text x="58.5" y="18" font-family="Virgil, Segoe UI Emoji" font-size="20.529302206709755px" fill="#000000" text-anchor="middle" style="white-space: pre;" direction="ltr">Third party</text></g><g stroke-linecap="round" transform="translate(27.11456073316458 547.6296906655614) rotate(0 51.38163725071803 18.33335413640637)"><path d="M8.19 0.6 L97.94 -1.11 L103.72 7.06 L101.69 31.63 L100.88 32.85 L94.72 35.62 L5.58 37.74 L0.97 32 L1.69 10.08 L3.15 1.84 L10.82 1.92" stroke="none" stroke-width="0" fill="#ced4da"></path><path d="M9.17 0 M9.17 0 C36.55 0.7, 62.28 -2.23, 93.6 0 M9.17 0 C35.88 -0.5, 64.71 -0.67, 93.6 0 M93.6 0 C100.42 1.7, 103.41 4.27, 102.76 9.17 M93.6 0 C98.63 1.78, 104.67 4.58, 102.76 9.17 M102.76 9.17 C101.92 17.12, 103.41 22.7, 102.76 27.5 M102.76 9.17 C103.51 12.7, 102.1 17.38, 102.76 27.5 M102.76 27.5 C104.49 34.02, 98.78 38.03, 93.6 36.67 M102.76 27.5 C103.61 32.29, 98.74 37.59, 93.6 36.67 M93.6 36.67 C77.98 36.74, 58.7 35.99, 9.17 36.67 M93.6 36.67 C74.25 36.64, 56.78 35.69, 9.17 36.67 M9.17 36.67 C2.39 35.56, 1.01 33.86, 0 27.5 M9.17 36.67 C4.23 35.57, 1.54 32.11, 0 27.5 M0 27.5 C-0.72 21.47, 0.75 12.15, 0 9.17 M0 27.5 C0.32 22.73, 0.78 20.33, 0 9.17 M0 9.17 C-1.28 2.77, 1.19 -0.25, 9.17 0 M0 9.17 C-1.16 4.65, 4.9 -0.38, 9.17 0" stroke="#000000" stroke-width="1" fill="none"></path></g><g stroke-linecap="round" transform="translate(55.579505313372465 506.1384155147489) rotate(0 34.73688152161219 33.53073980211175)"><path d="M41.78 1.63 C48.36 2.55, 55.82 6.41, 60.33 10.96 C64.85 15.51, 68.05 22.43, 68.86 28.93 C69.68 35.44, 68.66 44.13, 65.24 49.98 C61.81 55.84, 54.53 61.49, 48.33 64.07 C42.14 66.65, 34.67 66.86, 28.08 65.46 C21.49 64.05, 13.35 60.3, 8.79 55.63 C4.23 50.96, 1.36 43.96, 0.73 37.45 C0.1 30.94, 1.64 22.39, 5.02 16.54 C8.4 10.7, 14.35 5.01, 21 2.36 C27.65 -0.29, 40.63 0.69, 44.92 0.64 C49.22 0.6, 46.97 1.42, 46.76 2.12 M25.17 1.84 C31.16 -0.1, 37.77 0.86, 44.24 2.73 C50.7 4.6, 59.78 8.1, 63.95 13.03 C68.12 17.97, 69.49 25.74, 69.26 32.34 C69.02 38.95, 66.35 46.93, 62.53 52.65 C58.7 58.37, 52.8 64.5, 46.3 66.69 C39.81 68.88, 30.12 68.05, 23.55 65.8 C16.98 63.55, 11.03 58.67, 6.89 53.17 C2.75 47.67, -1.2 39.46, -1.27 32.8 C-1.33 26.15, 2.13 18.26, 6.51 13.22 C10.89 8.17, 21.95 4.3, 25.01 2.53 C28.06 0.76, 24.86 2.11, 24.84 2.61" stroke="none" stroke-width="0" fill="#ced4da"></path><path d="M50.85 2.96 C56.95 5.32, 63.25 11.79, 66.32 17.92 C69.38 24.05, 70.39 33.14, 69.23 39.75 C68.08 46.36, 64.12 53.03, 59.39 57.59 C54.66 62.16, 47.55 66.21, 40.86 67.13 C34.17 68.05, 25.31 66.04, 19.26 63.11 C13.2 60.19, 7.65 55.57, 4.54 49.58 C1.44 43.59, -0.41 33.8, 0.64 27.19 C1.69 20.59, 5.95 14.47, 10.85 9.95 C15.75 5.42, 22.92 0.66, 30.05 0.03 C37.17 -0.6, 49.02 4.56, 53.58 6.18 C58.13 7.8, 57.7 9.33, 57.39 9.77 M46.53 2.06 C53.01 3.31, 59.6 7.53, 63.62 12.95 C67.64 18.37, 70.58 27.74, 70.64 34.56 C70.69 41.38, 68.08 48.96, 63.96 53.87 C59.84 58.78, 52.65 61.88, 45.9 64.02 C39.16 66.16, 29.94 68.38, 23.5 66.69 C17.06 65, 11.38 59.25, 7.27 53.87 C3.16 48.49, -1.22 40.85, -1.15 34.38 C-1.08 27.92, 3.69 20.74, 7.69 15.09 C11.7 9.44, 16.61 2.53, 22.88 0.49 C29.15 -1.54, 41.57 2.7, 45.32 2.87 C49.06 3.04, 45.37 1.11, 45.36 1.52" stroke="#000000" stroke-width="1" fill="none"></path></g><g stroke-linecap="round" transform="translate(10.22857666015625 536.5331868461599) rotate(0 24.122834390008478 23.39914935830822)"><path d="M28.96 -0.52 C33.84 0.15, 38.8 4.64, 42.18 8.67 C45.55 12.69, 49.15 18.7, 49.2 23.63 C49.26 28.56, 46.18 34.39, 42.52 38.24 C38.86 42.09, 32.38 46, 27.26 46.75 C22.14 47.5, 16.09 45.28, 11.78 42.73 C7.47 40.18, 3.26 36.09, 1.4 31.44 C-0.47 26.79, -1.11 19.49, 0.61 14.83 C2.33 10.18, 6.39 5.66, 11.73 3.52 C17.06 1.38, 28.67 1.85, 32.63 1.97 C36.59 2.09, 35.77 3.8, 35.5 4.23 M18.08 1.51 C22.39 -0.25, 28.37 -1.46, 32.75 0.59 C37.13 2.65, 41.86 9.39, 44.38 13.85 C46.9 18.31, 48.66 22.47, 47.86 27.35 C47.05 32.24, 43.9 39.95, 39.56 43.15 C35.21 46.35, 27.33 47.03, 21.76 46.54 C16.2 46.05, 9.9 43.47, 6.17 40.24 C2.45 37.01, -0.43 32.15, -0.59 27.16 C-0.76 22.17, 2.13 14.59, 5.17 10.3 C8.21 6, 15.6 3.06, 17.64 1.37 C19.69 -0.32, 17.48 -0.1, 17.44 0.16" stroke="none" stroke-width="0" fill="#ced4da"></path><path d="M20.33 0.75 C25.07 -0.15, 32.05 1.29, 36.66 3.94 C41.27 6.59, 46.33 11.78, 47.99 16.67 C49.65 21.57, 48.67 28.64, 46.61 33.3 C44.55 37.97, 40.29 42.35, 35.61 44.64 C30.94 46.93, 23.52 48.2, 18.56 47.05 C13.61 45.9, 9.12 41.78, 5.87 37.74 C2.63 33.7, -1.05 27.77, -0.92 22.83 C-0.79 17.89, 1.77 11.97, 6.65 8.1 C11.53 4.22, 23.49 0.35, 28.36 -0.45 C33.24 -1.25, 35.8 2.89, 35.9 3.29 M25.62 1.29 C30.47 1.36, 37.22 3.65, 40.84 7 C44.46 10.36, 46.51 16.44, 47.33 21.43 C48.15 26.41, 48.27 32.81, 45.76 36.89 C43.25 40.97, 37.62 44.67, 32.26 45.91 C26.91 47.15, 18.35 46.19, 13.64 44.33 C8.92 42.48, 6.07 39.29, 3.97 34.78 C1.86 30.27, 0 22.05, 1.01 17.26 C2.02 12.48, 5.82 9.1, 10.01 6.07 C14.21 3.05, 23.87 0.03, 26.18 -0.89 C28.49 -1.81, 23.84 -0.05, 23.85 0.55" stroke="#000000" stroke-width="1" fill="none"></path></g><g stroke-linecap="round" transform="translate(36.281237801361385 517.7173760219532) rotate(0 16.55939800741814 14.885644421280603)"><path d="M10.96 0.02 C14.22 -0.93, 19.9 0.82, 23.31 2.2 C26.71 3.59, 29.88 5.79, 31.38 8.35 C32.87 10.91, 33.05 14.5, 32.27 17.58 C31.48 20.66, 29.58 24.78, 26.65 26.81 C23.73 28.84, 18.25 30.11, 14.71 29.77 C11.17 29.42, 7.9 27.03, 5.41 24.74 C2.92 22.44, 0.13 18.98, -0.23 15.99 C-0.59 13, 0.55 9.51, 3.27 6.77 C5.99 4.03, 13.32 0.7, 16.09 -0.45 C18.87 -1.6, 19.87 -0.38, 19.94 -0.15 M22.12 -0.22 C25.29 0.16, 27.27 2.74, 29.24 5.63 C31.2 8.53, 34.42 13.59, 33.93 17.14 C33.43 20.69, 28.89 24.97, 26.27 26.92 C23.65 28.86, 21.55 29.08, 18.21 28.8 C14.87 28.52, 9.22 27.18, 6.22 25.27 C3.21 23.35, 0.74 19.98, 0.2 17.3 C-0.35 14.62, 1.3 11.8, 2.93 9.17 C4.57 6.55, 6.85 2.95, 10.03 1.56 C13.2 0.16, 20.28 0.98, 21.98 0.8 C23.67 0.62, 20.41 0.32, 20.22 0.47" stroke="none" stroke-width="0" fill="#ced4da"></path><path d="M17.6 -0.52 C20.97 -0.36, 25.19 2.34, 27.78 4.59 C30.37 6.84, 32.52 9.88, 33.14 12.97 C33.76 16.06, 33.32 20.52, 31.5 23.15 C29.68 25.79, 25.57 27.7, 22.2 28.79 C18.83 29.88, 14.62 30.98, 11.28 29.68 C7.94 28.38, 3.9 23.94, 2.17 21.01 C0.45 18.08, 0.12 15.14, 0.91 12.11 C1.69 9.09, 3.92 4.79, 6.87 2.86 C9.83 0.92, 16.16 0.67, 18.64 0.49 C21.11 0.31, 21.76 1.56, 21.73 1.77 M22.85 1.18 C26.3 1.71, 29.58 3.39, 31.46 6.22 C33.34 9.04, 34.59 14.7, 34.13 18.11 C33.68 21.52, 31.49 24.97, 28.71 26.69 C25.93 28.41, 21.29 28.23, 17.46 28.43 C13.63 28.62, 8.5 29.52, 5.73 27.88 C2.97 26.23, 1.72 21.74, 0.89 18.53 C0.06 15.32, -1.02 11.34, 0.74 8.62 C2.5 5.9, 8.13 3.73, 11.45 2.21 C14.77 0.69, 18.99 -0.53, 20.67 -0.52 C22.35 -0.51, 21.42 1.96, 21.53 2.28" stroke="#000000" stroke-width="1" fill="none"></path></g><g stroke-linecap="round" transform="translate(101.89534734219058 545.6998639143626) rotate(0 20.504409231507225 19.29826751200676)"><path d="M15.65 0.54 C19.77 -0.37, 27.1 0.39, 31.09 2.24 C35.08 4.1, 38.25 7.8, 39.6 11.68 C40.95 15.56, 40.58 21.67, 39.2 25.53 C37.82 29.39, 34.9 32.66, 31.31 34.86 C27.72 37.05, 22.17 39.17, 17.68 38.68 C13.18 38.18, 7.37 34.91, 4.34 31.88 C1.3 28.84, -0.57 24.47, -0.54 20.48 C-0.52 16.49, 1.46 11.21, 4.47 7.93 C7.49 4.65, 15.09 1.92, 17.54 0.81 C19.99 -0.3, 19.15 0.97, 19.18 1.28 M14.97 -0.82 C18.62 -1.88, 24.41 1.2, 28.52 3.06 C32.63 4.92, 37.54 6.51, 39.64 10.32 C41.74 14.13, 42.62 21.77, 41.14 25.93 C39.65 30.09, 34.8 33.21, 30.71 35.27 C26.62 37.32, 20.93 38.56, 16.61 38.27 C12.28 37.97, 7.31 36.53, 4.75 33.49 C2.19 30.46, 1.26 24.3, 1.23 20.06 C1.2 15.82, 2.11 11.54, 4.57 8.07 C7.03 4.59, 14.18 0.47, 15.99 -0.77 C17.81 -2.02, 15.48 -0.04, 15.47 0.62" stroke="none" stroke-width="0" fill="#ced4da"></path><path d="M22.09 0.32 C26.53 0.41, 32.87 2.99, 36.05 6.07 C39.24 9.14, 40.95 14.6, 41.2 18.76 C41.46 22.93, 40.23 27.69, 37.57 31.04 C34.92 34.39, 29.45 37.88, 25.28 38.84 C21.1 39.81, 16.58 38.7, 12.51 36.85 C8.44 35, 2.76 31.45, 0.84 27.74 C-1.07 24.04, -0.29 18.82, 1.02 14.6 C2.32 10.38, 4.57 4.8, 8.65 2.44 C12.74 0.08, 22.23 0.7, 25.52 0.44 C28.81 0.18, 28.5 0.46, 28.39 0.89 M20.06 0.93 C24.02 0.49, 28.65 2.61, 32.26 5.13 C35.88 7.66, 40.55 12.21, 41.76 16.09 C42.97 19.97, 41.96 25.02, 39.51 28.41 C37.06 31.79, 31.03 34.77, 27.04 36.4 C23.05 38.04, 19.46 39.53, 15.57 38.22 C11.67 36.91, 6.14 31.91, 3.69 28.54 C1.23 25.17, 0.14 22.05, 0.81 17.99 C1.48 13.94, 4.8 7.17, 7.72 4.18 C10.65 1.19, 16.17 0.66, 18.37 0.08 C20.56 -0.5, 20.79 0.23, 20.9 0.71" stroke="#000000" stroke-width="1" fill="none"></path></g><g stroke-linecap="round" transform="translate(16.363204538107766 542.4630003066634) rotate(0 21.245712417459885 20.676630834849334)"><path d="M25.6 1.38 C30.04 2.07, 35.11 4.72, 37.86 7.89 C40.61 11.06, 42.17 16.01, 42.1 20.41 C42.02 24.82, 40.51 30.86, 37.42 34.32 C34.34 37.78, 28.08 40.64, 23.58 41.15 C19.08 41.66, 14.21 39.79, 10.41 37.37 C6.61 34.96, 2.17 30.71, 0.76 26.68 C-0.64 22.66, 0.18 17.33, 1.98 13.22 C3.79 9.11, 7.32 4.21, 11.62 2.03 C15.92 -0.15, 24.8 0.3, 27.77 0.15 C30.73 -0.01, 29.52 0.75, 29.41 1.11 M26.1 -0.41 C30.38 0.76, 37.53 5.54, 40 9.64 C42.46 13.73, 41.44 19.98, 40.9 24.18 C40.36 28.37, 39.87 32.18, 36.76 34.81 C33.64 37.43, 26.93 39.65, 22.19 39.93 C17.44 40.2, 11.74 38.68, 8.31 36.46 C4.88 34.23, 2.64 30.69, 1.59 26.58 C0.55 22.46, 0.1 15.91, 2.05 11.77 C4 7.64, 9.27 3.66, 13.29 1.76 C17.3 -0.14, 23.85 0.52, 26.14 0.37 C28.44 0.22, 26.8 0.28, 27.04 0.85" stroke="none" stroke-width="0" fill="#ced4da"></path><path d="M13.56 2.31 C17.41 0.63, 23.64 -0.04, 28.07 1.28 C32.5 2.6, 37.7 6.54, 40.14 10.23 C42.58 13.91, 43.35 18.92, 42.7 23.39 C42.06 27.86, 39.68 34.21, 36.25 37.04 C32.81 39.88, 26.71 40.38, 22.11 40.4 C17.52 40.42, 12.19 39.8, 8.68 37.17 C5.17 34.53, 2.21 28.89, 1.04 24.56 C-0.13 20.23, -0.95 15.07, 1.64 11.17 C4.23 7.27, 13.64 2.94, 16.6 1.17 C19.56 -0.61, 19.23 0.31, 19.42 0.52 M25.92 -0.37 C30.21 0.24, 35.8 5.03, 38.73 8.69 C41.66 12.34, 43.66 17.55, 43.48 21.55 C43.31 25.55, 40.92 29.24, 37.69 32.69 C34.47 36.14, 28.59 41.2, 24.15 42.25 C19.71 43.31, 15.07 41.33, 11.07 39.01 C7.06 36.68, 1.53 32.38, 0.1 28.32 C-1.33 24.26, 0.88 19.1, 2.5 14.63 C4.11 10.16, 6.02 3.69, 9.78 1.52 C13.54 -0.65, 22.49 1.87, 25.07 1.62 C27.64 1.37, 25.14 -0.18, 25.24 0.04" stroke="#ced4da" stroke-width="1" fill="none"></path></g><g stroke-linecap="round" transform="translate(73.65075052090094 526.5287159935685) rotate(0 25.60867121747401 27.505609826175743)"><path d="M15.16 2.86 C19.79 -0.03, 26.65 -1.05, 31.69 0.38 C36.73 1.8, 42.17 6.76, 45.4 11.43 C48.64 16.1, 51.31 22.52, 51.11 28.4 C50.91 34.28, 48.12 42.37, 44.2 46.72 C40.27 51.07, 33.11 53.8, 27.56 54.5 C22.01 55.21, 15.3 54.05, 10.9 50.94 C6.5 47.82, 2.71 41.43, 1.17 35.81 C-0.37 30.18, -1 22.79, 1.66 17.19 C4.31 11.59, 13.89 4.81, 17.12 2.2 C20.35 -0.42, 20.87 1.12, 21.03 1.51 M28.81 1.39 C34.2 2, 41.61 3.9, 45.52 8.43 C49.42 12.96, 52.46 22.45, 52.24 28.55 C52.03 34.65, 48.17 40.7, 44.23 45.01 C40.29 49.32, 33.98 53.2, 28.61 54.42 C23.23 55.64, 16.31 55.3, 12 52.33 C7.69 49.37, 4.4 42.26, 2.73 36.61 C1.06 30.96, 0.3 24.13, 2.01 18.43 C3.71 12.72, 8.35 5.43, 12.95 2.39 C17.55 -0.65, 26.82 0.28, 29.59 0.18 C32.36 0.07, 29.41 1.2, 29.58 1.77" stroke="none" stroke-width="0" fill="#ced4da"></path><path d="M33.52 1.27 C38.75 2.59, 44.1 8.07, 47.1 13 C50.1 17.93, 52.19 24.98, 51.53 30.84 C50.87 36.7, 47.02 44.09, 43.15 48.14 C39.28 52.19, 33.92 54.77, 28.32 55.13 C22.73 55.49, 14.14 53.71, 9.58 50.3 C5.03 46.9, 2.21 40.68, 0.99 34.72 C-0.24 28.76, -0.17 19.95, 2.25 14.54 C4.66 9.13, 10.03 4.56, 15.47 2.28 C20.92 0, 31.55 0.67, 34.9 0.85 C38.26 1.03, 35.85 2.73, 35.58 3.35 M35.46 3.61 C40.47 5.61, 47.31 11.43, 49.94 16.59 C52.57 21.74, 53.01 29.12, 51.23 34.54 C49.44 39.97, 43.6 45.66, 39.2 49.14 C34.81 52.62, 30.04 55.96, 24.87 55.44 C19.7 54.92, 12.19 50.03, 8.17 46.02 C4.15 42.02, 1.2 37.23, 0.77 31.41 C0.33 25.58, 2.77 16.13, 5.56 11.08 C8.34 6.03, 12.16 2.47, 17.48 1.08 C22.8 -0.31, 34.5 2.27, 37.46 2.75 C40.42 3.23, 35.55 3.75, 35.26 3.97" stroke="#ced4da" stroke-width="1" fill="none"></path></g><g stroke-linecap="round" transform="translate(91.48197344269363 545.8774898023246) rotate(0 24.47050805225291 18.779692226147546)"><path d="M17.37 0.89 C21.96 -0.74, 28.84 -0.85, 33.71 0.71 C38.57 2.27, 44.27 6.51, 46.57 10.24 C48.87 13.97, 48.68 19.31, 47.49 23.08 C46.3 26.85, 43.53 30.56, 39.41 32.88 C35.29 35.19, 27.98 37.02, 22.79 36.98 C17.59 36.93, 11.92 35.34, 8.24 32.6 C4.55 29.86, 1.28 24.67, 0.69 20.54 C0.09 16.42, 1.55 11.28, 4.65 7.85 C7.76 4.43, 16.72 1.26, 19.31 0 C21.9 -1.26, 20.16 -0.15, 20.21 0.31 M18.01 1.14 C22.64 0.14, 27.49 1.11, 32.34 2.44 C37.19 3.76, 44.5 5.95, 47.13 9.11 C49.77 12.27, 49.47 17.44, 48.16 21.4 C46.84 25.37, 43.17 30, 39.23 32.89 C35.29 35.78, 29.75 38.71, 24.5 38.75 C19.25 38.78, 11.72 36, 7.74 33.1 C3.75 30.21, 1.47 25.52, 0.6 21.38 C-0.27 17.23, -0.17 11.7, 2.53 8.21 C5.23 4.72, 14.22 1.45, 16.8 0.45 C19.38 -0.55, 17.76 1.76, 18 2.2" stroke="none" stroke-width="0" fill="#ced4da"></path><path d="M18.34 0.89 C23.17 -0.4, 30.87 0.6, 35.66 2.22 C40.45 3.84, 44.86 6.89, 47.08 10.62 C49.29 14.35, 50.33 20.83, 48.94 24.6 C47.54 28.37, 43.03 31.03, 38.69 33.22 C34.35 35.4, 28.06 37.97, 22.9 37.72 C17.75 37.47, 11.7 34.54, 7.76 31.7 C3.81 28.86, -0.21 24.5, -0.78 20.67 C-1.35 16.83, 0.77 12.1, 4.34 8.7 C7.91 5.29, 17.15 1.63, 20.65 0.23 C24.15 -1.17, 25.1 -0.15, 25.33 0.29 M29.55 1.49 C34.53 2.12, 40.73 4.7, 43.99 7.32 C47.26 9.94, 49.37 13.1, 49.16 17.19 C48.95 21.28, 45.98 28.44, 42.71 31.86 C39.45 35.27, 34.78 37.03, 29.55 37.69 C24.33 38.35, 15.83 37.67, 11.37 35.81 C6.91 33.95, 4.6 30.61, 2.78 26.53 C0.96 22.46, -1.08 15.15, 0.46 11.38 C1.99 7.62, 7.3 5.91, 12.01 3.94 C16.71 1.97, 25.81 0.01, 28.7 -0.46 C31.59 -0.92, 29.59 0.85, 29.34 1.17" stroke="#ced4da" stroke-width="1" fill="none"></path></g><g stroke-linecap="round" transform="translate(48.61116088603285 519.3203492805005) rotate(0 20.486936973979198 20.676630834849362)"><path d="M21.79 -0.35 C25.68 -0.32, 30.6 2.95, 33.77 5.93 C36.93 8.9, 40.14 13.1, 40.78 17.5 C41.42 21.9, 40.17 28.56, 37.61 32.33 C35.05 36.11, 29.7 38.86, 25.4 40.16 C21.1 41.46, 15.64 41.78, 11.79 40.16 C7.93 38.53, 4.24 34.37, 2.29 30.44 C0.34 26.5, -0.8 20.79, 0.08 16.54 C0.97 12.3, 3.92 7.58, 7.63 4.95 C11.33 2.32, 19.66 1.37, 22.32 0.76 C24.97 0.16, 23.43 1.18, 23.55 1.32 M12.03 0.53 C16.08 -1.5, 22.71 0.34, 26.75 1.67 C30.79 3.01, 34.15 5.12, 36.27 8.55 C38.4 11.97, 39.84 17.61, 39.5 22.23 C39.17 26.85, 36.92 33.16, 34.26 36.29 C31.6 39.42, 27.71 40.73, 23.54 41.02 C19.37 41.31, 13.02 40.73, 9.23 38.03 C5.44 35.33, 2.12 29.2, 0.81 24.82 C-0.5 20.44, -0.38 15.42, 1.37 11.74 C3.13 8.07, 9.41 4.26, 11.34 2.76 C13.26 1.26, 12.62 2.65, 12.9 2.76" stroke="none" stroke-width="0" fill="#ced4da"></path><path d="M22.91 0.96 C27.03 1.19, 32.74 3.58, 35.71 6.77 C38.67 9.96, 40.32 15.72, 40.7 20.1 C41.08 24.48, 40.71 29.51, 38 33.05 C35.29 36.58, 28.84 40.18, 24.46 41.31 C20.08 42.44, 15.55 42.02, 11.7 39.83 C7.86 37.64, 3.17 32.34, 1.4 28.17 C-0.38 24.01, -0.33 19.09, 1.06 14.85 C2.45 10.62, 5.8 5.06, 9.75 2.76 C13.7 0.46, 21.97 1.23, 24.75 1.05 C27.52 0.87, 26.35 1.41, 26.41 1.7 M27.87 1.94 C32.18 2.79, 36.63 6.32, 38.56 9.77 C40.49 13.22, 39.97 18.2, 39.47 22.64 C38.97 27.08, 38.48 33.49, 35.55 36.41 C32.61 39.33, 26.34 39.87, 21.86 40.18 C17.38 40.49, 12.05 40.94, 8.67 38.28 C5.29 35.63, 2.85 28.78, 1.58 24.27 C0.32 19.75, -0.97 14.94, 1.09 11.21 C3.14 7.48, 9.78 3.43, 13.92 1.89 C18.06 0.35, 23.74 2.21, 25.93 1.97 C28.12 1.74, 27.15 0.23, 27.06 0.49" stroke="#ced4da" stroke-width="1" fill="none"></path></g><g stroke-linecap="round" transform="translate(31.159325685986914 529.9432054892302) rotate(0 28.26438526965643 25.798365078344148)"><path d="M40.93 2.11 C46.25 4.22, 52.4 10.63, 54.65 15.87 C56.89 21.12, 56.23 28.46, 54.41 33.59 C52.59 38.71, 48.74 43.76, 43.72 46.63 C38.69 49.5, 30.2 51.37, 24.24 50.82 C18.27 50.27, 11.88 47.41, 7.93 43.35 C3.98 39.29, 0.77 32.1, 0.54 26.44 C0.3 20.79, 2.76 13.84, 6.51 9.44 C10.26 5.03, 16.65 0.93, 23.03 0.03 C29.41 -0.87, 40.79 2.85, 44.79 4.02 C48.79 5.19, 47.49 6.78, 47.02 7.07 M14.98 3.4 C20.06 0.7, 30.63 -1.1, 36.67 -0.05 C42.72 0.99, 48 5.11, 51.26 9.69 C54.52 14.26, 56.57 21.45, 56.23 27.39 C55.88 33.33, 53.52 41.22, 49.21 45.32 C44.9 49.41, 36.51 51.67, 30.37 51.95 C24.23 52.23, 17.46 50.32, 12.35 46.97 C7.23 43.62, 1.32 37.29, -0.33 31.86 C-1.98 26.43, -0.48 19.12, 2.44 14.37 C5.37 9.61, 14.78 5.19, 17.22 3.33 C19.66 1.47, 17.08 2.88, 17.08 3.23" stroke="none" stroke-width="0" fill="#ced4da"></path><path d="M40.44 2.62 C45.89 4.35, 51.33 9.08, 54.02 14.12 C56.7 19.15, 58.03 27.59, 56.56 32.84 C55.09 38.09, 50.13 42.47, 45.21 45.63 C40.29 48.78, 33.01 52.03, 27.04 51.78 C21.06 51.52, 13.97 47.92, 9.35 44.11 C4.73 40.3, 0.08 34.23, -0.7 28.91 C-1.49 23.59, 1.27 16.83, 4.65 12.2 C8.02 7.57, 13.08 2.56, 19.55 1.13 C26.02 -0.31, 39.06 2.65, 43.44 3.6 C47.82 4.55, 46.11 6.34, 45.82 6.83 M22.71 1.51 C28.07 -0.46, 36.02 -1.14, 41.15 1.4 C46.28 3.94, 51.04 11.39, 53.49 16.76 C55.94 22.13, 57.66 28.43, 55.86 33.63 C54.05 38.83, 47.61 44.83, 42.67 47.98 C37.72 51.13, 32.18 53.46, 26.2 52.52 C20.23 51.57, 11.17 46.29, 6.82 42.3 C2.47 38.32, 0.26 34.05, 0.11 28.62 C-0.05 23.19, 2.11 14.28, 5.88 9.72 C9.65 5.15, 20.22 2.78, 22.74 1.26 C25.26 -0.27, 20.95 0.48, 20.99 0.58" stroke="#ced4da" stroke-width="1" fill="none"></path></g><g transform="translate(18.066371232681377 549.2711345033051) rotate(0 58.5 13)"><text x="58.5" y="18" font-family="Virgil, Segoe UI Emoji" font-size="20.529302206709755px" fill="#000000" text-anchor="middle" style="white-space: pre;" direction="ltr">Third party</text></g><g stroke-linecap="round" transform="translate(852.5785782639309 297.08673095703125) rotate(0 65 32.5)"><path d="M1.09 1.27 L131.51 -0.54 L130.45 64 L-1.56 65.95" stroke="none" stroke-width="0" fill="#eeeeee"></path><path d="M-1.54 -0.93 C42.24 0.4, 85.03 0.87, 131.06 -0.99 M0.07 0.68 C36.57 0.45, 70.79 0.01, 129.23 -0.9 M128.1 -1.38 C127.97 25.57, 130.7 49.43, 131.78 65.44 M130.67 -0.71 C129.81 18.29, 131.22 36.82, 130.5 65.64 M131.93 66.1 C98.17 63.22, 62.12 65.87, -1.52 65.68 M130.71 65.83 C104.32 63.3, 77.05 64.63, -0.02 65.24 M0.08 65.85 C-1.09 43.94, -1.88 25.3, 0.65 -1.03 M0.66 65.63 C-0.36 39.45, 1.12 16.03, 0.27 -0.28" stroke="#000000" stroke-width="1" fill="none"></path></g><g transform="translate(857.5785782639309 317.08673095703125) rotate(0 60 12.5)"><text x="60" y="18" font-family="Virgil, Segoe UI Emoji" font-size="20px" fill="#000000" text-anchor="middle" style="white-space: pre;" direction="ltr">Consumer</text></g><g stroke-linecap="round" transform="translate(849.4593155686184 393.80889892578125) rotate(0 65 32.5)"><path d="M-1.39 1.09 L131.47 -1.03 L131.14 66.87 L-1.13 64.32" stroke="none" stroke-width="0" fill="#eeeeee"></path><path d="M0.25 1.9 C32.9 -0.2, 65.35 0.97, 128.02 -1.59 M-0.86 0.54 C30.04 0.17, 59.97 -0.25, 130.54 -0.17 M129.76 -0.34 C129.62 25.37, 130.61 49.62, 128.67 64.81 M129.77 -0.47 C129.94 18.51, 128.68 36.23, 129.85 65.71 M130.07 63.32 C92.04 64.7, 55.44 65.99, 1.81 63.03 M129.92 65.34 C80.8 66.3, 31.95 64.71, 0.67 65.86 M0.1 64.87 C0.47 40.4, -0.08 15, 0.11 -0.43 M-0.43 64.07 C0.06 45.2, 0.4 22.89, 0.9 0.09" stroke="#000000" stroke-width="1" fill="none"></path></g><g transform="translate(854.4593155686184 413.80889892578125) rotate(0 60 12.5)"><text x="60" y="18" font-family="Virgil, Segoe UI Emoji" font-size="20px" fill="#000000" text-anchor="middle" style="white-space: pre;" direction="ltr">Consumer</text></g><g stroke-linecap="round" transform="translate(852.2463028733059 521.5679931640625) rotate(0 65 32.5)"><path d="M-1.78 -1.64 L128.19 1.79 L130.99 65.61 L-1.43 64.81" stroke="none" stroke-width="0" fill="#eeeeee"></path><path d="M-1.27 1.99 C29.75 -0.67, 55.81 1.18, 129.17 -1.09 M0.13 -0.09 C32.22 -0.33, 64.54 -0.58, 130.39 -0.96 M129.99 0.94 C129.74 17.68, 132.16 35.6, 128.87 66.25 M130.67 -0.43 C129.39 19.83, 128.71 40.72, 130.49 65.17 M131.08 65.12 C88.66 63.76, 50.42 67.07, 1.46 64.6 M129.38 65.8 C91.7 65.54, 55.76 66.1, -0.89 65.58 M-1.62 64.83 C1.63 43.3, -1.33 24.28, -1.69 0.94 M0.61 65.25 C-0.34 41.7, -0.24 16.88, -0.14 -0.72" stroke="#000000" stroke-width="1" fill="none"></path></g><g transform="translate(857.2463028733059 541.5679931640625) rotate(0 60 12.5)"><text x="60" y="18" font-family="Virgil, Segoe UI Emoji" font-size="20px" fill="#000000" text-anchor="middle" style="white-space: pre;" direction="ltr">Consumer</text></g><g stroke-linecap="round"><g transform="translate(723.1467545334622 354.3210754394531) rotate(340.9367009300577 49.400437550856736 -0.9686179764568799)"><path d="M0.45 -0.02 C17.08 -0.53, 83.13 -1.63, 99.58 -1.92 M-0.78 -1.08 C15.81 -0.92, 82.58 -0.71, 99.15 -0.62" stroke="#000000" stroke-width="1" fill="none"></path></g><g transform="translate(723.1467545334622 354.3210754394531) rotate(340.9367009300577 49.400437550856736 -0.9686179764568799)"><path d="M97.67 0.99 L83.96 6.18 L84.46 -6.14 L98.47 1.23" stroke="none" stroke-width="0" fill="#000000" fill-rule="evenodd"></path><path d="M99.13 0.62 C94.81 1.89, 91.2 2.96, 86.25 5.54 M98.61 -0.77 C93.51 2.56, 89.77 3.88, 85.82 5.11 M84.46 5.4 C85.56 2.65, 86.29 -0.78, 85.76 -6.91 M85.5 5.32 C85.43 1.57, 85.84 -2.62, 85.97 -7.38 M85.54 -8.12 C90.87 -3.67, 93.14 -2.94, 99.21 0.44 M85.6 -7.25 C89.52 -5.7, 92.73 -3.23, 98.66 -0.4 M99.15 -0.62 C99.15 -0.62, 99.15 -0.62, 99.15 -0.62 M99.15 -0.62 C99.15 -0.62, 99.15 -0.62, 99.15 -0.62" stroke="#000000" stroke-width="1" fill="none"></path></g></g><g stroke-linecap="round"><g transform="translate(722.7918045822903 552.5703582763672) rotate(0 57.24799960777159 -1.6338267369251156)"><path d="M-0.46 -0.37 C18.64 -0.81, 95.85 -2.53, 114.96 -2.89 M1.49 -1.62 C20.49 -1.92, 95.87 -1.93, 114.54 -1.94" stroke="#000000" stroke-width="1" fill="none"></path></g><g transform="translate(722.7918045822903 552.5703582763672) rotate(0 57.24799960777159 -1.6338267369251156)"><path d="M115.42 -2.82 L99.22 5.26 L100.16 -8.6 L114.07 -3.15" stroke="none" stroke-width="0" fill="#000000" fill-rule="evenodd"></path><path d="M114.07 -0.67 C108.67 0.4, 104.6 2.3, 100.45 3.95 M114.19 -1.21 C112.03 -0.1, 109.11 0.2, 100.74 4.93 M99.96 4.74 C100.33 0.87, 100.61 -2.61, 101.97 -8.6 M101.27 3.9 C101.41 1.32, 100.43 -1.17, 101.1 -8.51 M100.21 -9.24 C105.11 -5.76, 112.49 -4.71, 114.9 -1.17 M101.31 -7.97 C104.79 -6.37, 106.64 -5.6, 114.06 -1.68 M114.54 -1.94 C114.54 -1.94, 114.54 -1.94, 114.54 -1.94 M114.54 -1.94 C114.54 -1.94, 114.54 -1.94, 114.54 -1.94" stroke="#000000" stroke-width="1" fill="none"></path></g></g><g stroke-linecap="round"><g transform="translate(725.753352433853 393.46275329589844) rotate(19.915122288219557 48.83105483086308 -0.8599852468958105)"><path d="M0.5 0.87 C16.77 0.69, 82.02 -0.46, 98.37 -0.81 M-0.7 0.29 C15.33 -0.28, 80.88 -2.58, 97.3 -2.59" stroke="#000000" stroke-width="1" fill="none"></path></g><g transform="translate(725.753352433853 393.46275329589844) rotate(19.915122288219557 48.83105483086308 -0.8599852468958105)"><path d="M97.11 -1.82 L85.46 2.33 L82.67 -9.64 L96.81 -3.34" stroke="none" stroke-width="0" fill="#000000" fill-rule="evenodd"></path><path d="M98.39 -2.87 C93.29 -0.17, 87.93 3.09, 82.83 3.96 M97.36 -2.31 C93.96 -1.16, 90.53 0.93, 84.27 3.43 M83.5 5.26 C83.85 2.25, 83.59 -0.84, 82.45 -9.48 M83.53 3.54 C84.2 1.04, 83.49 -1.63, 83.02 -9.02 M83.81 -10.09 C87.8 -6.12, 90.83 -6.66, 97.98 -1.73 M83.6 -8.27 C87.57 -7.17, 91.5 -5.14, 97.17 -2.8 M97.3 -2.59 C97.3 -2.59, 97.3 -2.59, 97.3 -2.59 M97.3 -2.59 C97.3 -2.59, 97.3 -2.59, 97.3 -2.59" stroke="#000000" stroke-width="1" fill="none"></path></g></g><g stroke-linecap="round"><g transform="translate(162.40163734596217 372.54180908203125) rotate(0 55.545365611086595 0.8570802171902763)"><path d="M0.09 -0.62 C18.71 -0.37, 93.64 0.74, 112.42 0.89 M-1.33 1.67 C17.05 2.15, 92.4 2.4, 111.29 2.32" stroke="#000000" stroke-width="1" fill="none"></path></g><g transform="translate(162.40163734596217 372.54180908203125) rotate(0 55.545365611086595 0.8570802171902763)"><path d="M111.32 3.99 L96.59 8.61 L98.49 -4.15 L109.87 1.22" stroke="none" stroke-width="0" fill="#000000" fill-rule="evenodd"></path><path d="M110.52 1.9 C106.12 4.63, 100.49 8.09, 98.15 8.64 M110.83 1.99 C105.68 4.8, 100.6 7.23, 97.09 8.18 M96.88 8.35 C97.88 6.34, 97.8 2.75, 96.7 -4.4 M97.64 8.13 C97.6 3.89, 98.28 -0.88, 97.16 -4.13 M99.16 -5.11 C103.01 -2.81, 105.19 1.15, 111.14 1.92 M97.7 -4.34 C101.54 -2.91, 104.01 -0.4, 110.78 2.35 M111.29 2.32 C111.29 2.32, 111.29 2.32, 111.29 2.32 M111.29 2.32 C111.29 2.32, 111.29 2.32, 111.29 2.32" stroke="#000000" stroke-width="1" fill="none"></path></g></g><g stroke-linecap="round"><g transform="translate(158.64843300025905 544.67626953125) rotate(0 56.07075339771342 -0.27448931156656897)"><path d="M0 -0.5 C19.11 -0.29, 94.91 -0.17, 113.6 0.2 M-1.46 -1.81 C17.66 -1.38, 94.34 1.01, 113.1 1.26" stroke="#000000" stroke-width="1" fill="none"></path></g><g transform="translate(158.64843300025905 544.67626953125) rotate(0 56.07075339771342 -0.27448931156656897)"><path d="M113.04 -0.44 L98.02 6.95 L100.5 -5.1 L113.98 0.11" stroke="none" stroke-width="0" fill="#000000" fill-rule="evenodd"></path><path d="M112.48 2.33 C109 1.82, 107.96 2.78, 99.43 7.63 M113.63 1.63 C109.52 1.98, 107.21 3.23, 99.71 6.76 M99.13 7.56 C99.46 2.76, 100.53 -0.78, 100.64 -5.38 M99.61 7.24 C99.1 2.06, 99.75 -2.1, 99.21 -4.82 M99.57 -4.8 C104.93 -3.69, 107.69 -2.24, 112.76 0.96 M99.11 -5.56 C103.67 -4.12, 108.73 -1.52, 112.5 1.06 M113.1 1.26 C113.1 1.26, 113.1 1.26, 113.1 1.26 M113.1 1.26 C113.1 1.26, 113.1 1.26, 113.1 1.26" stroke="#000000" stroke-width="1" fill="none"></path></g></g><g stroke-linecap="round"><g transform="translate(148.61893433559658 401.08185351948845) rotate(16.46303798972945 64.50900690879939 53.476517132100916)"><path d="M0.76 0.26 C21.97 17.78, 105.93 88.29, 126.93 106.15 M-0.29 -0.65 C21.34 17.58, 107.73 89.87, 129.31 107.6" stroke="#000000" stroke-width="1" fill="none"></path></g><g transform="translate(148.61893433559658 401.08185351948845) rotate(16.46303798972945 64.50900690879939 53.476517132100916)"><path d="M129.26 106.67 L113.89 105.23 L122.33 95.55 L130.34 107.61" stroke="none" stroke-width="0" fill="#000000" fill-rule="evenodd"></path><path d="M129.64 106.81 C125.1 105.64, 122.79 104.97, 114.8 104.11 M129.02 107.05 C125.99 107.23, 122.06 105.65, 114.58 103.27 M113.95 103.59 C118.17 100.64, 121.02 96.32, 122.18 92.85 M114.23 103.78 C117.55 100.15, 121.38 95.38, 123.11 93.66 M123.71 95.21 C124.19 96.97, 127.08 101.66, 128.92 106.99 M122.41 93.45 C123.88 98.03, 125.42 100.19, 129.37 108.03 M129.31 107.6 C129.31 107.6, 129.31 107.6, 129.31 107.6 M129.31 107.6 C129.31 107.6, 129.31 107.6, 129.31 107.6" stroke="#000000" stroke-width="1" fill="none"></path></g></g><g stroke-linecap="round"><g transform="translate(544.2329686584831 33.07593704432645) rotate(0 38.336993701807955 41.94564917526171)" fill-rule="evenodd"><path d="M1.02 -0.06 L0.52 84.01 L0.79 84.79 L19.27 92.58 L42.75 89.83 L62.02 88.99 L76.17 83.08 L75.56 -2.92 L67.22 -3.56 L36.23 -7.3 L11.47 -4.25 L1.92 -3.91 L-1.38 -0.55" stroke="none" stroke-width="0" fill="#ced4da" fill-rule="evenodd"></path><path d="M0.48 0.78 C0.53 13.26, 0.69 61.99, 0.49 75.76 C0.28 89.53, -1.29 81.49, -0.72 83.41 C-0.16 85.32, 0.69 86.04, 3.86 87.26 C7.03 88.48, 12.08 89.92, 18.3 90.71 C24.53 91.5, 33.88 92.33, 41.21 92.02 C48.53 91.71, 56.52 89.86, 62.24 88.85 C67.95 87.83, 73.06 87.04, 75.48 85.95 C77.91 84.85, 76.62 83.78, 76.78 82.27 C76.94 80.76, 76.45 89.51, 76.45 76.88 C76.44 64.25, 76.83 19.45, 76.75 6.5 C76.66 -6.46, 76.63 0.79, 75.93 -0.84 C75.23 -2.46, 75.06 -2.5, 72.57 -3.25 C70.09 -4, 67.07 -4.6, 61.01 -5.35 C54.96 -6.1, 43.23 -7.43, 36.27 -7.73 C29.3 -8.04, 24.72 -7.9, 19.21 -7.17 C13.7 -6.45, 6.44 -4.53, 3.21 -3.38 C-0.03 -2.23, 0.16 -0.72, -0.21 -0.28 C-0.58 0.16, 1.02 -0.76, 0.99 -0.73 M-0.72 0.15 C-0.84 12.19, -0.76 59.86, -0.34 73.93 C0.08 87.99, 1.05 82.15, 1.78 84.54 C2.52 86.92, 1.5 87.15, 4.05 88.26 C6.61 89.36, 10.68 90.67, 17.12 91.16 C23.56 91.66, 35.16 91.33, 42.7 91.22 C50.23 91.12, 56.99 91.52, 62.31 90.55 C67.63 89.58, 72.51 86.5, 74.64 85.43 C76.76 84.35, 74.71 85.53, 75.09 84.09 C75.46 82.64, 76.58 89.51, 76.9 76.76 C77.22 64, 76.84 20.63, 77 7.58 C77.17 -5.47, 79.12 0.33, 77.9 -1.54 C76.69 -3.42, 72.64 -3.08, 69.7 -3.68 C66.77 -4.28, 65.89 -4.38, 60.28 -5.13 C54.67 -5.88, 43.24 -8.03, 36.04 -8.19 C28.84 -8.35, 22.76 -7, 17.07 -6.09 C11.38 -5.17, 5.01 -3.72, 1.9 -2.71 C-1.21 -1.7, -1.29 -0.35, -1.59 -0.04 C-1.89 0.27, -0.13 -1.15, 0.12 -0.86" stroke="#000000" stroke-width="1" fill="none"></path></g></g><g stroke-linecap="round"><g transform="translate(544.756898096758 90.20222070205625) rotate(0 38.28411347846469 4.085394611397518)"><path d="M0.78 0.23 C1.07 0.6, 0.98 1.69, 2.59 2.68 C4.2 3.67, 7.16 5.19, 10.44 6.17 C13.72 7.15, 17.2 8.2, 22.27 8.56 C27.34 8.92, 34.15 8.75, 40.86 8.32 C47.58 7.89, 57.12 6.8, 62.53 5.98 C67.95 5.16, 70.99 4.45, 73.37 3.38 C75.75 2.32, 76.34 0.3, 76.83 -0.43 M-0.26 -0.69 C-0.17 -0.23, 0.31 2.47, 1.93 3.83 C3.56 5.18, 6.08 7.02, 9.49 7.43 C12.9 7.84, 17.41 6.06, 22.41 6.29 C27.4 6.51, 33.1 8.5, 39.45 8.79 C45.81 9.08, 54.87 9.13, 60.53 8.03 C66.18 6.94, 70.89 3.69, 73.4 2.22 C75.92 0.75, 74.89 -0.58, 75.63 -0.79" stroke="#000000" stroke-width="1" fill="none"></path></g></g><g stroke-linecap="round"><g transform="translate(543.7250407742542 61.23816536683319) rotate(0 38.014266510531 3.706261439966653)"><path d="M0.23 0.56 C0.37 0.94, -0.45 2.14, 1.3 3.06 C3.04 3.98, 7.07 5.23, 10.69 6.07 C14.31 6.92, 17.98 7.7, 23.01 8.13 C28.05 8.55, 34.57 9, 40.9 8.62 C47.23 8.25, 55.33 6.89, 60.99 5.9 C66.66 4.91, 72.18 3.9, 74.87 2.71 C77.56 1.51, 76.85 -0.86, 77.13 -1.27 M-1.11 -0.2 C-0.63 0.29, 1.79 3.16, 3.62 4.41 C5.45 5.65, 6.55 6.47, 9.87 7.29 C13.19 8.1, 18.61 8.97, 23.55 9.29 C28.49 9.62, 33.12 9.49, 39.5 9.26 C45.89 9.02, 55.81 8.64, 61.84 7.91 C67.87 7.17, 73.32 6.51, 75.69 4.84 C78.07 3.18, 75.66 -1.13, 76.09 -2.08" stroke="#000000" stroke-width="1" fill="none"></path></g></g><g stroke-linecap="round" transform="translate(542.6670917921722 25.943668418644734) rotate(0 38.29876800932743 7.745637696423984)"><path d="M46.34 -0.07 C54.16 0.37, 63.94 2.33, 69.01 3.85 C74.08 5.37, 77.29 7.65, 76.75 9.07 C76.21 10.48, 71.49 11.3, 65.77 12.33 C60.05 13.36, 50.63 14.94, 42.44 15.26 C34.25 15.59, 23.49 15, 16.64 14.28 C9.78 13.56, 3.66 12.57, 1.32 10.95 C-1.02 9.34, -0.67 6.22, 2.6 4.59 C5.86 2.96, 11.97 1.65, 20.92 1.16 C29.86 0.67, 49.17 1.4, 56.27 1.65 C63.38 1.9, 63.94 2.57, 63.55 2.67 M43.15 -0.01 C51.18 0.17, 61.17 1.99, 66.7 2.99 C72.23 3.99, 75.98 4.58, 76.32 5.98 C76.65 7.38, 73.34 9.82, 68.72 11.4 C64.11 12.99, 56.6 14.92, 48.63 15.51 C40.67 16.1, 28.67 15.62, 20.95 14.94 C13.23 14.25, 5.78 13.05, 2.29 11.38 C-1.2 9.72, -2.19 6.79, 0.03 4.93 C2.25 3.07, 8.8 1.24, 15.59 0.22 C22.38 -0.81, 36.42 -1.18, 40.79 -1.24 C45.16 -1.3, 41.6 -0.55, 41.83 -0.15" stroke="none" stroke-width="0" fill="#fff"></path><path d="M33.08 0.18 C40.75 -0.06, 51.65 0.83, 58.42 1.52 C65.19 2.21, 71.08 2.85, 73.71 4.31 C76.34 5.78, 77.08 8.71, 74.22 10.3 C71.36 11.88, 63.9 12.89, 56.56 13.82 C49.21 14.74, 38.23 16.04, 30.18 15.86 C22.12 15.67, 13.33 14.19, 8.24 12.73 C3.14 11.27, -0.8 8.68, -0.42 7.1 C-0.04 5.52, 4.46 4.31, 10.5 3.24 C16.53 2.17, 31.18 1.16, 35.79 0.67 C40.41 0.18, 38.01 0.35, 38.19 0.32 M36.52 1.24 C44.18 1.03, 54.34 0.19, 60.85 1.13 C67.37 2.07, 73.73 5.07, 75.61 6.87 C77.49 8.66, 75.88 10.6, 72.13 11.9 C68.39 13.2, 60.87 13.95, 53.14 14.67 C45.41 15.4, 33.35 16.51, 25.73 16.26 C18.1 16, 11.83 14.9, 7.39 13.14 C2.94 11.38, -1.69 7.64, -0.95 5.72 C-0.22 3.8, 5.73 2.74, 11.8 1.61 C17.86 0.48, 31.49 -0.77, 35.44 -1.04 C39.39 -1.31, 35.05 -0.19, 35.51 -0.02" stroke="#000000" stroke-width="1" fill="none"></path></g><g stroke-linecap="round" transform="translate(579.1590788973949 50.42033609854832) rotate(0 5.613051577080853 6.0918792422278045)"><path d="M3.44 0.41 C4.67 0.07, 6.98 0.22, 8.3 0.58 C9.62 0.95, 11.02 1.58, 11.38 2.61 C11.73 3.64, 10.81 5.52, 10.42 6.76 C10.03 8, 9.83 9.22, 9.03 10.07 C8.23 10.92, 6.65 11.84, 5.64 11.87 C4.63 11.9, 3.9 11.06, 2.95 10.25 C2.01 9.44, 0.28 8.22, -0.03 7.03 C-0.34 5.83, 0.11 4.27, 1.09 3.07 C2.06 1.88, 4.85 0.42, 5.84 -0.15 C6.82 -0.72, 6.99 -0.5, 6.98 -0.34 M4.66 0.98 C5.89 0.52, 8.28 0.26, 9.12 0.68 C9.96 1.09, 9.56 2.06, 9.71 3.48 C9.85 4.91, 10.16 8.04, 9.98 9.25 C9.79 10.47, 9.47 10.49, 8.6 10.78 C7.74 11.08, 5.93 11.4, 4.79 11.02 C3.64 10.65, 2.65 9.55, 1.74 8.51 C0.82 7.47, -0.45 6.08, -0.69 4.78 C-0.94 3.47, -0.44 1.51, 0.25 0.67 C0.93 -0.16, 2.74 -0.22, 3.43 -0.25 C4.12 -0.27, 4.1 0.46, 4.38 0.53" stroke="none" stroke-width="0" fill="#868e96"></path><path d="M5.46 0.13 C6.69 -0.23, 8.63 -0.47, 9.41 0.35 C10.18 1.17, 9.97 3.63, 10.12 5.05 C10.27 6.47, 10.82 7.84, 10.31 8.87 C9.8 9.9, 8.01 10.73, 7.03 11.22 C6.06 11.7, 5.45 12.18, 4.45 11.8 C3.45 11.42, 1.85 9.87, 1.04 8.94 C0.23 8, -0.63 7.43, -0.4 6.19 C-0.17 4.96, 1.29 2.73, 2.44 1.55 C3.59 0.37, 5.83 -0.78, 6.5 -0.88 C7.17 -0.98, 6.63 0.71, 6.48 0.95 M6.48 -0.9 C7.57 -1.03, 7.54 0.14, 8.44 1.06 C9.33 1.98, 11.37 3.25, 11.83 4.6 C12.29 5.94, 11.89 8.11, 11.19 9.15 C10.49 10.18, 8.63 10.08, 7.63 10.79 C6.63 11.51, 6.08 13.87, 5.18 13.43 C4.28 13, 3.23 9.64, 2.21 8.17 C1.19 6.71, -0.79 5.97, -0.94 4.66 C-1.09 3.35, 0.47 1.31, 1.33 0.31 C2.19 -0.69, 3.57 -1.5, 4.2 -1.33 C4.82 -1.15, 5.03 0.95, 5.07 1.35" stroke="#000000" stroke-width="1" fill="none"></path></g><g stroke-linecap="round" transform="translate(579.5102206813285 76.63695038561343) rotate(0 5.613051577080853 6.0918792422278045)"><path d="M4.71 0.84 C5.97 0.74, 7.68 1.3, 8.64 1.72 C9.59 2.13, 10.13 2.26, 10.43 3.31 C10.74 4.36, 10.92 6.66, 10.47 8.01 C10.01 9.37, 8.73 10.58, 7.7 11.42 C6.67 12.26, 5.46 13.31, 4.31 13.05 C3.16 12.8, 1.55 11, 0.81 9.89 C0.08 8.78, -0.19 7.56, -0.1 6.4 C0 5.24, 0.54 3.89, 1.37 2.91 C2.2 1.94, 4.3 0.89, 4.89 0.53 C5.49 0.17, 4.88 0.78, 4.95 0.75 M6.4 0.64 C7.36 0.34, 8.27 -0.42, 8.95 0.14 C9.64 0.71, 10.09 2.51, 10.52 4.04 C10.95 5.56, 12.11 7.96, 11.53 9.28 C10.94 10.61, 8.47 11.49, 7.01 12 C5.55 12.51, 4.02 12.91, 2.74 12.33 C1.47 11.75, 0.02 9.93, -0.63 8.54 C-1.28 7.16, -1.35 5.42, -1.16 4.03 C-0.98 2.65, -0.57 0.95, 0.48 0.22 C1.54 -0.51, 4.29 -0.39, 5.18 -0.35 C6.07 -0.31, 5.86 0.09, 5.84 0.45" stroke="none" stroke-width="0" fill="#868e96"></path><path d="M5.26 0.4 C6.17 0.04, 6.93 -0.5, 7.94 0.14 C8.95 0.78, 10.87 2.95, 11.32 4.25 C11.77 5.55, 11.3 6.63, 10.66 7.95 C10.02 9.26, 8.57 11.44, 7.47 12.14 C6.37 12.84, 5.19 12.63, 4.05 12.13 C2.9 11.63, 1.09 10.12, 0.57 9.12 C0.05 8.13, 0.74 7.28, 0.91 6.16 C1.09 5.05, 0.94 3.43, 1.6 2.43 C2.27 1.43, 3.98 0.58, 4.91 0.17 C5.84 -0.25, 7.07 -0.13, 7.2 -0.07 M4.3 -0.48 C5.46 -0.72, 7.67 0.98, 8.79 1.92 C9.9 2.86, 10.64 4.05, 11.01 5.15 C11.38 6.25, 11.69 7.24, 11.02 8.51 C10.36 9.78, 7.94 12.01, 7.03 12.79 C6.12 13.58, 6.8 13.93, 5.57 13.22 C4.34 12.51, 0.71 9.89, -0.34 8.53 C-1.39 7.17, -0.85 6.37, -0.74 5.06 C-0.63 3.75, -0.44 1.54, 0.33 0.67 C1.09 -0.2, 2.85 0.06, 3.87 -0.17 C4.89 -0.39, 6.13 -1.02, 6.44 -0.68" stroke="#000000" stroke-width="1" fill="none"></path></g><g stroke-linecap="round" transform="translate(580.1590788973949 105.40567695691982) rotate(357.5021844865888 5.613051577080853 6.0918792422278045)"><path d="M4.46 0.57 C5.71 -0.01, 7.57 -0.43, 8.45 -0.08 C9.34 0.27, 9.35 1.56, 9.77 2.66 C10.19 3.75, 11.05 5.17, 10.96 6.47 C10.87 7.77, 9.99 9.59, 9.25 10.46 C8.51 11.33, 7.78 11.66, 6.55 11.69 C5.32 11.72, 2.9 11.4, 1.88 10.64 C0.85 9.89, 0.47 8.47, 0.4 7.17 C0.34 5.87, 0.81 4.1, 1.51 2.85 C2.22 1.6, 4.03 0.08, 4.65 -0.32 C5.27 -0.73, 5.34 0.25, 5.23 0.43 M7.94 0.1 C8.86 0.15, 8.75 0.92, 9.14 2.22 C9.53 3.52, 10.21 6.6, 10.3 7.89 C10.38 9.18, 10.35 9.42, 9.65 9.96 C8.95 10.5, 7.24 11.21, 6.08 11.13 C4.91 11.05, 3.77 10.31, 2.67 9.49 C1.56 8.66, -0.04 7.45, -0.56 6.17 C-1.09 4.9, -0.94 2.84, -0.48 1.84 C-0.02 0.83, 0.95 0.34, 2.19 0.14 C3.43 -0.07, 6.05 0.65, 6.96 0.62 C7.86 0.58, 7.37 -0.08, 7.6 -0.09" stroke="none" stroke-width="0" fill="#868e96"></path><path d="M7.26 -0.75 C8.21 -0.52, 8.52 1.52, 9.13 2.71 C9.74 3.9, 10.96 5.21, 10.93 6.38 C10.91 7.56, 9.67 8.8, 8.98 9.75 C8.3 10.69, 7.86 11.87, 6.81 12.04 C5.77 12.21, 3.88 11.31, 2.71 10.76 C1.54 10.22, 0.07 9.95, -0.2 8.76 C-0.48 7.58, 0.41 5.15, 1.07 3.65 C1.72 2.16, 2.62 0.2, 3.72 -0.22 C4.82 -0.64, 7 0.99, 7.68 1.14 C8.36 1.28, 7.89 0.73, 7.81 0.67 M4.57 -0.09 C5.62 -0.14, 8.38 0.2, 9.54 1.02 C10.71 1.83, 11.41 3.69, 11.56 4.81 C11.72 5.93, 10.88 6.36, 10.48 7.73 C10.08 9.11, 10.01 12.58, 9.18 13.08 C8.35 13.57, 7 11.39, 5.49 10.69 C3.97 9.99, 1.05 9.95, 0.08 8.87 C-0.9 7.8, -0.46 5.64, -0.38 4.25 C-0.3 2.85, -0.32 0.99, 0.55 0.49 C1.43 -0.01, 4.27 1.23, 4.88 1.25 C5.5 1.27, 4.01 0.61, 4.25 0.62" stroke="#000000" stroke-width="1" fill="none"></path></g><g transform="translate(554.3824723068997 126.99581855576264) rotate(0 28 11)"><text x="28" y="15" font-family="Virgil, Segoe UI Emoji" font-size="17.4778970902999px" fill="#000000" text-anchor="middle" style="white-space: pre;" direction="ltr">MySQL</text></g><g stroke-linecap="round" transform="translate(392.502833343626 31.20229369707772) rotate(0 48.02441435389869 47.100867924016)"><path d="M1.25 -1.35 L94.74 -1.97 L96.55 92.88 L1.94 93.94" stroke="none" stroke-width="0" fill="#eeeeee"></path><path d="M-1.95 0.25 C33.1 0.07, 69.51 -0.18, 96.52 -0.59 M-0.96 -0.8 C36.05 0.09, 73.95 -0.15, 96.75 -0.25 M96.98 0.54 C97.72 26.91, 96.54 56.53, 96.9 94.65 M96.4 -0.57 C96.09 33.65, 97.29 66.38, 95.29 94.24 M94.89 93.76 C68.44 94.57, 43.43 95.16, -0.72 95.46 M95.35 95 C72.17 93.35, 48.08 92.66, 0.08 93.35 M-0.1 96.01 C1.34 72.47, 2.08 49.36, -1.8 0.3 M-0.72 94.12 C-0.29 63.88, -0.13 34.49, 0.07 0.3" stroke="#000000" stroke-width="1" fill="none"></path></g><g transform="translate(397.502833343626 65.80316162109372) rotate(0 43 12.5)"><text x="43" y="18" font-family="Virgil, Segoe UI Emoji" font-size="20px" fill="#000000" text-anchor="middle" style="white-space: pre;" direction="ltr">Drupal</text></g><g stroke-linecap="round" transform="translate(370.3944351975247 10) rotate(0 134.63885498046875 74.40933227539062)"><path d="M0.93 -2.93 C81.79 -2.08, 164.38 -1.73, 266.6 -0.53 M-1.56 0.06 C99.04 4.05, 198.42 3.47, 268.43 -0.34 M272.76 -0.66 C270.01 57.07, 270 111.69, 268.7 151.91 M268.62 0.87 C268.53 43.98, 268.14 87.08, 268.96 149.42 M271.56 150.87 C167.01 147.42, 63.4 151.51, -0.7 145.95 M268.51 149.73 C181.05 146.88, 92.32 145.17, -0.39 148.44 M-1.42 145.66 C-3.09 91.57, -3.37 34.07, -1.41 0.6 M1.45 148.29 C4.74 102.29, 2.44 54.34, 0.28 -0.98" stroke="#000000" stroke-width="1" fill="none"></path></g><g stroke-linecap="round"><g transform="translate(497.0238297287747 79.18339883114669) rotate(0 20.89551382139325 1.7766527713160372)"><path d="M-0.87 0.79 C6.4 1.33, 35.34 3.2, 42.66 3.4 M0.88 0.15 C8.14 0.31, 35.12 0.99, 42.12 1.42" stroke="#000000" stroke-width="1" fill="none"></path></g><g transform="translate(497.0238297287747 79.18339883114669) rotate(0 20.89551382139325 1.7766527713160372)"><path d="M-2.38 2.6 L14.2 -3.79 L11.87 7.5 L-2.29 1.82" stroke="none" stroke-width="0" fill="#000000" fill-rule="evenodd"></path><path d="M0.11 1.77 C2.57 1.16, 3.91 -0.76, 12.14 -4.05 M-0.45 0.12 C3.79 -0.05, 6.93 -1.69, 12.38 -5 M12.85 -4.78 C11.78 -2.03, 12.63 0.61, 11.75 7.4 M13.49 -4.09 C13.21 -0.94, 12.84 2.69, 12.56 8.5 M13.64 7.49 C7.97 5.89, 5.74 2.61, -2.14 0.18 M12.74 7.28 C9.22 6.53, 5.98 5.1, -0.39 1.51 M-0.87 0.79 C-0.87 0.79, -0.87 0.79, -0.87 0.79 M-0.87 0.79 C-0.87 0.79, -0.87 0.79, -0.87 0.79" stroke="#000000" stroke-width="1" fill="none"></path></g><g transform="translate(497.0238297287747 79.18339883114669) rotate(0 20.89551382139325 1.7766527713160372)"><path d="M40.62 3.23 L29.38 8.08 L28.37 -5.95 L40.7 2.46" stroke="none" stroke-width="0" fill="#000000" fill-rule="evenodd"></path><path d="M43.11 2.41 C39.41 4.08, 34.6 4.65, 27.31 7.83 M42.55 0.75 C38.42 3.68, 33.3 5.39, 27.56 6.88 M28.03 7.09 C27.18 4.25, 28.32 1.29, 28.26 -6.04 M28.67 7.79 C28.77 4.04, 28.76 0.77, 29.07 -4.95 M30.15 -5.96 C31.57 -3.62, 36.43 -3.14, 40.86 0.82 M29.24 -6.16 C32.14 -3.27, 35.27 -1.32, 42.61 2.15 M42.12 1.42 C42.12 1.42, 42.12 1.42, 42.12 1.42 M42.12 1.42 C42.12 1.42, 42.12 1.42, 42.12 1.42" stroke="#000000" stroke-width="1" fill="none"></path></g></g><g stroke-linecap="round"><g transform="translate(443.37798148940317 175.58003720119598) rotate(0 -59.800017905980326 74.39765242741444)"><path d="M-1.02 -1.04 C-20.93 23.74, -100.71 123.35, -120.25 148.38 M0.65 1.03 C-18.82 26.03, -98.14 125.49, -117.99 149.84" stroke="#000000" stroke-width="1" fill="none"></path></g><g transform="translate(443.37798148940317 175.58003720119598) rotate(0 -59.800017905980326 74.39765242741444)"><path d="M-119.22 149.95 L-115.15 134.49 L-104.71 142.99 L-116.32 149.59" stroke="none" stroke-width="0" fill="#000000" fill-rule="evenodd"></path><path d="M-119.29 148.76 C-117.31 147.82, -115.52 144.11, -112.94 134.66 M-117.62 149.34 C-117.71 147.23, -116.66 143.7, -114.62 135.43 M-115.1 135.29 C-111.97 137.96, -107.78 140.19, -105.36 143.51 M-114.87 135.31 C-111.39 138.3, -107.44 140.3, -105.04 143.82 M-104.62 142.08 C-109.18 145.34, -112.95 148.89, -117.88 150.15 M-103.81 143.37 C-108.27 144.25, -112.12 147.25, -118.66 149.8 M-117.99 149.84 C-117.99 149.84, -117.99 149.84, -117.99 149.84 M-117.99 149.84 C-117.99 149.84, -117.99 149.84, -117.99 149.84" stroke="#000000" stroke-width="1" fill="none"></path></g></g><g stroke-linecap="round"><g transform="translate(915.6477310959622 282.2740478515625) rotate(0 -126.56021781070035 -106.14978486069194)"><path d="M0.34 -0.66 C-0.31 -33.48, 39.87 -164.13, -4.97 -197.32 C-49.8 -230.52, -224.6 -199.47, -268.7 -199.84 M-0.94 1.61 C-1.64 -31.54, 38.92 -165.72, -5.79 -199.17 C-50.5 -232.61, -225.26 -199.12, -269.2 -199.06" stroke="#000000" stroke-width="1" fill="none"></path></g><g transform="translate(915.6477310959622 282.2740478515625) rotate(0 -126.56021781070035 -106.14978486069194)"><path d="M-268.21 -198.01 L-256.62 -204.67 L-254.78 -193.96 L-270.73 -198.91" stroke="none" stroke-width="0" fill="#000000" fill-rule="evenodd"></path><path d="M-270.03 -198.77 C-265.78 -200.09, -264.99 -202.74, -257.16 -205.96 M-269.76 -198.5 C-266.09 -200.15, -263.43 -202.31, -256.4 -205.97 M-255.83 -207.56 C-256.64 -202.81, -255.27 -196.76, -254.23 -193.37 M-256.87 -206.26 C-256.38 -201.92, -254.87 -197.45, -255.23 -194.5 M-253.7 -193.21 C-259.18 -194.66, -263.78 -197.94, -268.64 -197.89 M-254.64 -193.59 C-258.95 -194.95, -262.37 -196.89, -268.96 -198.8 M-269.2 -199.06 C-269.2 -199.06, -269.2 -199.06, -269.2 -199.06 M-269.2 -199.06 C-269.2 -199.06, -269.2 -199.06, -269.2 -199.06" stroke="#000000" stroke-width="1" fill="none"></path></g></g><g stroke-linecap="round"><g transform="translate(995.6214859787747 425.40966796875) rotate(0 -137.3020315052122 -187.83562755578163)"><path d="M-0.68 0.8 C10.13 1.4, 62.84 67.61, 65.79 2.68 C68.75 -62.25, 85.31 -331.36, 17.03 -388.78 C-51.25 -446.19, -283.74 -349.67, -343.9 -341.8 M1.16 0.18 C12.24 0.5, 64.87 65.42, 67.92 0.84 C70.98 -63.74, 88.57 -330.36, 19.47 -387.3 C-49.63 -444.23, -285.97 -348.45, -346.69 -340.76" stroke="#000000" stroke-width="1" fill="none"></path></g><g transform="translate(995.6214859787747 425.40966796875) rotate(0 -137.3020315052122 -187.83562755578163)"><path d="M-347.94 -339.74 L-337.01 -351.92 L-333.67 -339.3 L-347.54 -340" stroke="none" stroke-width="0" fill="#000000" fill-rule="evenodd"></path><path d="M-345.69 -342.14 C-341.57 -345.4, -337.48 -346.45, -335.28 -348.9 M-345.95 -341.48 C-343.12 -344.07, -339.75 -346.92, -334.84 -349.84 M-336.1 -349.83 C-335.37 -346.73, -334.14 -343.83, -332.93 -337.64 M-335.64 -350.41 C-334.37 -346.58, -333.02 -343.67, -331.77 -337.6 M-332.84 -337.49 C-336.24 -338.85, -339.62 -339.26, -346.74 -342.13 M-331.76 -338.28 C-336.83 -339.68, -342.39 -339.67, -346.07 -341.36 M-346.69 -340.76 C-346.69 -340.76, -346.69 -340.76, -346.69 -340.76 M-346.69 -340.76 C-346.69 -340.76, -346.69 -340.76, -346.69 -340.76" stroke="#000000" stroke-width="1" fill="none"></path></g></g><g stroke-linecap="round"><g transform="translate(993.5237076584622 557.3211669921875) rotate(0 41.37607964692654 -136.98645608188642)"><path d="M-0.44 -0.78 C12.55 -0.24, 64.91 47.44, 77.16 4.05 C89.4 -39.35, 74.1 -211.51, 73.05 -261.18 C72 -310.84, 71.31 -288.34, 70.87 -293.96 M1.53 1.42 C14.94 1.57, 67.55 46.08, 79.31 2.44 C91.07 -41.2, 73.35 -210.65, 72.07 -260.42 C70.79 -310.2, 72.1 -290.51, 71.61 -296.22" stroke="#000000" stroke-width="1" fill="none"></path></g><g transform="translate(993.5237076584622 557.3211669921875) rotate(0 41.37607964692654 -136.98645608188642)"><path d="M70.55 -294.59 L79.12 -284.83 L68.13 -283.65 L70.54 -297.83" stroke="none" stroke-width="0" fill="#000000" fill-rule="evenodd"></path><path d="M70.64 -297.54 C74.68 -293.64, 73.87 -288.88, 79.77 -282.61 M71.9 -296.37 C73.92 -292.86, 75.48 -288.61, 79.39 -282.56 M79.25 -282.74 C73.48 -283.71, 69.77 -282.25, 66.26 -282.09 M78.67 -283.47 C75.26 -282.95, 70.91 -283.06, 66.73 -282.47 M65.81 -282.35 C68.62 -288.45, 70.77 -292.9, 72.54 -297.65 M66.1 -282.8 C68.06 -286.93, 69.84 -293.52, 71.45 -295.55 M71.61 -296.22 C71.61 -296.22, 71.61 -296.22, 71.61 -296.22 M71.61 -296.22 C71.61 -296.22, 71.61 -296.22, 71.61 -296.22" stroke="#000000" stroke-width="1" fill="none"></path></g></g></svg>